<svg width="249" height="255" viewBox="0 0 249 255" fill="none" xmlns="http://www.w3.org/2000/svg">
<path opacity="0.4" fill-rule="evenodd" clip-rule="evenodd" d="M119.502 207.26L16.7445 210.848C16.7445 210.848 -33.0387 248.437 72.1437 249.785C177.326 251.134 225.272 244.438 225.272 244.438C225.272 244.438 282.533 222.97 192.612 212.717C102.691 202.464 119.502 207.26 119.502 207.26Z" fill="#DDDEEA"/>
<path fill-rule="evenodd" clip-rule="evenodd" d="M69.0629 96.4947L71.2811 93.7501L70.9022 90.6627L71.5165 90.2503L72.0555 90.9846L72.4751 88.3325L74.113 86.8915L76.9417 87.5467L78.8303 89.8754L77.8809 92.6117L75.2723 94.8647L72.3988 98.7531L69.0629 96.4947Z" fill="#EFBFA5"/>
<path fill-rule="evenodd" clip-rule="evenodd" d="M69.0642 93.9833L61.7826 104.917L46.1714 83.617L40.4711 97.7217L58.1267 120.846L64.2817 121.35L75.9258 96.359L69.0642 93.9833Z" fill="#2F3789"/>
<path fill-rule="evenodd" clip-rule="evenodd" d="M184.431 99.5055L180.925 95.6571L182.403 93.9887L185.352 96.0575L185.707 94.9225L188.332 98.6053L187.014 100.561L184.431 99.5055Z" fill="#B97262"/>
<path fill-rule="evenodd" clip-rule="evenodd" d="M214.762 89.2904L205.847 106.036L187.265 96.1181L185.173 100.349L206.468 118.605L226.725 97.2883L214.762 89.2904Z" fill="white"/>
<path fill-rule="evenodd" clip-rule="evenodd" d="M217.658 152.923V146.141L198.913 143.008L194.297 167.72L193.915 179.838L203.912 221.022L210.16 219.774L207.661 186.078L212.145 171.524L219.773 223.648H224.339L227.223 186.208L233.472 148.767L217.658 152.923Z" fill="url(#paint0_linear_1_52)"/>
<path fill-rule="evenodd" clip-rule="evenodd" d="M204.946 221.878L200.176 226.92L201.554 229.475L211.396 224.757L209.584 221.022L204.946 221.878Z" fill="#2B2B2B"/>
<path fill-rule="evenodd" clip-rule="evenodd" d="M219.858 225.249L213.978 228.94L214.673 231.758L225.383 229.646L224.562 225.577L219.858 225.249Z" fill="#2B2B2B"/>
<path fill-rule="evenodd" clip-rule="evenodd" d="M205.575 73.2726C209.625 73.57 213.412 70.2491 217.397 71.0733C219.989 71.6093 222.035 73.9052 222.826 76.4922C223.195 77.698 223.325 79.0124 222.964 80.2112C222.73 80.9894 222.298 81.6909 221.79 82.3143C221.11 83.1474 220.279 83.8397 219.356 84.3713C219.863 85.1872 220.444 85.9571 221.09 86.6682C219.222 87.3828 217.354 88.097 215.487 88.8113C215.074 87.7396 214.661 86.6679 214.249 85.5958C213.687 85.565 213.127 85.4853 212.579 85.3432C209.263 84.4835 206.514 81.5835 205.774 78.1641C205.428 76.5624 205.494 74.9058 205.575 73.2726Z" fill="#EFBFA5"/>
<path fill-rule="evenodd" clip-rule="evenodd" d="M206.598 74.4927L219.12 73.0067L221.55 82.5593L225.086 79.7569L223.264 64.1264L205.592 63.7464L197.94 68.229L198.264 72.7217L205.106 77.3212L206.598 74.4927Z" fill="#2F3789"/>
<path fill-rule="evenodd" clip-rule="evenodd" d="M211.458 90.2903L226.332 84.3977C226.332 84.3977 231.617 97.5098 237.626 118.513C243.636 139.517 234.836 166.253 234.836 166.253C234.836 166.253 204.356 151.212 197.552 149.878L202.493 118.439L211.458 90.2903Z" fill="url(#paint1_linear_1_52)"/>
<path fill-rule="evenodd" clip-rule="evenodd" d="M9.54264 144.127C9.41156 148.001 9.49555 153.181 11.1286 153.375C11.4344 153.411 11.7293 153.276 11.9985 153.145C14.8374 151.768 16.8618 149.82 19.6609 148.49C22.5943 147.095 25.9282 146.365 29.1864 145.861C34.0459 145.086 38.9859 144.62 43.8772 144.577C48.0807 144.539 52.4521 146.454 56.4258 147.508C59.4445 148.594 60.1279 150.162 63.0727 151.354C65.2307 139.23 63.7698 126.414 61.7339 114.377C60.7015 108.273 60.1645 103.441 57.017 98.0102C53.9913 92.7899 50.3096 87.9483 46.0791 83.6431C42.0472 79.5399 32.7275 77.7539 27.1429 80.5207C22.6633 82.7397 20.5326 90.3005 18.3565 94.3411C16.4494 97.8816 14.0455 107.539 13.3315 111.356C12.4722 115.95 11.6787 120.522 11.0539 125.083C10.3616 130.134 9.87384 135.17 9.73258 140.177C9.71699 140.73 9.60532 142.278 9.54264 144.127Z" fill="url(#paint2_linear_1_52)"/>
<path fill-rule="evenodd" clip-rule="evenodd" d="M17.5853 153.84L17.7058 129.429L29.9095 127.635L29.5749 125.629L36.5601 126.657L43.5454 125.629L43.3345 127.653L55.4141 129.429L55.9031 171.624L47.941 226.028H41.8191L38.1062 177.823L38.0779 178.095L31.3009 226.028H25.179L17.5853 153.84Z" fill="url(#paint3_linear_1_52)"/>
<path fill-rule="evenodd" clip-rule="evenodd" d="M31.2659 225.3H24.6454L21.3353 228.606L24.6454 231.911L31.2659 228.606V225.3H41.854V228.606L48.4745 231.911L51.7846 228.606L48.4745 225.3H31.2659Z" fill="#1D2B56"/>
<path fill-rule="evenodd" clip-rule="evenodd" d="M32.1207 81.1876L40.394 81.2664C40.394 81.2664 49.2718 112.25 49.5979 117.59C49.9183 122.833 52.1622 144.089 52.1622 144.089C52.1622 144.089 42.9997 144.305 32.4424 145.589C22.1221 147.795 21.2548 146.491 21.2548 146.491C21.2548 146.491 26.8247 124.149 27.0093 117.731C27.1986 111.165 28.0398 89.4817 28.0398 89.4817L32.1207 81.1876Z" fill="white"/>
<path fill-rule="evenodd" clip-rule="evenodd" d="M33.3195 81.6938H37.3925C38.3432 81.6938 38.8825 82.7817 38.3056 83.5366L36.6334 85.7251L41.0828 126.709L35.6071 132.084L31.8423 125.701L32.869 85.7251L32.2063 83.1236C32.0218 82.3985 32.5706 81.6938 33.3195 81.6938Z" fill="#D67086"/>
<path fill-rule="evenodd" clip-rule="evenodd" d="M37.1377 81.3484C37.0407 81.4329 36.9287 81.4993 36.7995 81.5419C36.5425 81.6261 36.2635 81.5956 35.9946 81.5635C34.9005 81.4345 33.8057 81.3052 32.7116 81.1756C33.0724 77.8286 31.1135 77.0717 29.2043 74.9191C27.2696 72.7366 27.8648 69.7944 27.9733 67.1239C28.0045 66.3801 28.0408 65.6137 28.3561 64.9392C28.9084 63.755 30.195 63.1014 31.4444 62.7134C34.6316 61.7243 38.2774 61.9677 41.0841 63.7724C41.8312 64.2529 42.5285 64.8559 42.9332 65.6458C43.5571 66.8633 43.3987 68.317 43.2247 69.6737C42.9574 71.7593 42.3392 73.8074 41.1586 75.565C40.0584 77.2026 37.9608 77.9868 37.7196 79.9523C37.6576 80.46 37.5036 81.0313 37.1377 81.3484Z" fill="#EFBFA5"/>
<path fill-rule="evenodd" clip-rule="evenodd" d="M43.1324 67.2494C42.9463 68.0907 42.554 68.9416 42.7582 69.7779C44.0961 69.3248 44.97 67.9582 45.4441 66.5694C45.6585 65.9397 45.8147 65.2731 45.7607 64.6068C45.7066 63.9405 45.4171 63.2714 44.8902 62.8949C44.1556 62.3697 42.8371 62.5759 42.6268 63.5278C42.415 64.488 43.4124 65.9842 43.1324 67.2494Z" fill="#1D2B56"/>
<path fill-rule="evenodd" clip-rule="evenodd" d="M50.2346 59.8615C50.2028 58.8536 49.8184 57.9532 48.9168 57.3447C48.1392 56.8205 47.243 56.3858 46.7705 55.5521C46.404 54.9052 46.3502 54.1045 45.9872 53.4554C45.3293 52.2804 43.9017 51.9347 42.66 51.5363C39.5532 50.5399 37.8803 49.3894 34.5897 50.6651C32.2506 51.5719 29.2275 51.6936 27.0561 53.0163C26.1494 53.5691 25.3778 54.4566 24.7447 55.445C22.5507 58.8702 22.0245 63.686 23.453 67.2589C23.7728 68.0583 24.1794 68.7939 24.6136 69.4976C25.4822 70.9055 26.4125 72.6378 27.9504 73.3269C28.0475 72.6638 28.5422 72.2975 28.6968 71.6455C28.8082 71.1765 28.771 70.6847 28.7468 70.2017C28.652 68.3233 28.0755 65.3535 29.9535 64.4219C32.3289 63.2444 36.7843 64.3069 39.0715 65.3036C41.0959 66.1863 44.512 67.3339 46.67 66.3886C48.6734 65.5114 50.3024 62.0144 50.2346 59.8615Z" fill="#1D2B56"/>
<path fill-rule="evenodd" clip-rule="evenodd" d="M143.606 80.171C141.835 81.2084 140.796 83.2618 141.152 85.4041C141.153 85.4082 141.154 85.4123 141.154 85.4163L149.951 137.635C150.353 140.015 151.993 141.525 153.64 141.708C154.333 141.897 155.077 141.943 155.832 141.816L186.854 136.604C189.634 136.137 191.509 133.507 191.042 130.731L182.244 78.5123C181.777 75.7357 179.144 73.8636 176.363 74.3307L154.283 78.0407L154.283 78.0405L153.714 78.1361L153.693 78.1399L145.342 79.543C144.967 79.6059 144.609 79.708 144.271 79.8443C144.049 79.9259 143.826 80.0359 143.606 80.171Z" fill="url(#paint4_linear_1_52)"/>
<path fill-rule="evenodd" clip-rule="evenodd" d="M167.978 91.7106L166.836 84.9346C166.776 84.5743 167.073 84.2242 167.5 84.1524L172.269 83.3507C172.697 83.2789 173.093 83.5131 173.153 83.8734L174.295 90.649C174.355 91.0093 174.058 91.3595 173.631 91.4313L168.861 92.2326C168.434 92.3044 168.038 92.0706 167.978 91.7106Z" fill="white"/>
<path fill-rule="evenodd" clip-rule="evenodd" d="M167.777 90.5677L167.752 90.4203L172.684 89.5919L172.708 89.7394L167.777 90.5677Z" fill="#1D2B56"/>
<path fill-rule="evenodd" clip-rule="evenodd" d="M167.052 86.1433L167.027 85.9959L173.359 84.9321L173.383 85.0795L167.052 86.1433Z" fill="#1D2B56"/>
<path fill-rule="evenodd" clip-rule="evenodd" d="M172.227 91.695L171.907 89.7953L172.064 89.7686L172.384 91.6686L172.227 91.695Z" fill="#1D2B56"/>
<path fill-rule="evenodd" clip-rule="evenodd" d="M170.767 91.9403L170.447 90.0406L170.605 90.0139L170.925 91.9136L170.767 91.9403Z" fill="#1D2B56"/>
<path fill-rule="evenodd" clip-rule="evenodd" d="M169.505 92.1522L169.184 90.2525L169.342 90.2261L169.662 92.1259L169.505 92.1522Z" fill="#1D2B56"/>
<path fill-rule="evenodd" clip-rule="evenodd" d="M171.356 85.3255L171.058 83.5547L171.216 83.528L171.514 85.2991L171.356 85.3255Z" fill="#1D2B56"/>
<path fill-rule="evenodd" clip-rule="evenodd" d="M172.582 88.4484L172.234 86.3825L172.392 86.3559L172.74 88.4221L172.582 88.4484Z" fill="#1D2B56"/>
<path fill-rule="evenodd" clip-rule="evenodd" d="M168.627 89.1131L168.279 87.0469L168.437 87.0205L168.785 89.0864L168.627 89.1131Z" fill="#1D2B56"/>
<path fill-rule="evenodd" clip-rule="evenodd" d="M155.373 125.921L155.225 125.044L157.727 124.623L157.875 125.501L155.373 125.921Z" fill="white"/>
<path fill-rule="evenodd" clip-rule="evenodd" d="M155.62 127.389L155.473 126.512L157.975 126.091L158.123 126.968L155.62 127.389Z" fill="white"/>
<path fill-rule="evenodd" clip-rule="evenodd" d="M155.868 128.857L155.72 127.979L158.222 127.559L158.37 128.436L155.868 128.857Z" fill="white"/>
<path fill-rule="evenodd" clip-rule="evenodd" d="M156.115 130.324L155.967 129.447L158.469 129.027L158.617 129.904L156.115 130.324Z" fill="white"/>
<path fill-rule="evenodd" clip-rule="evenodd" d="M156.362 131.792L156.215 130.915L158.717 130.494L158.864 131.372L156.362 131.792Z" fill="white"/>
<path fill-rule="evenodd" clip-rule="evenodd" d="M156.61 133.26L156.462 132.382L158.964 131.962L159.111 132.839L156.61 133.26Z" fill="white"/>
<path fill-rule="evenodd" clip-rule="evenodd" d="M166.755 134.631L158.49 85.5698L161.304 85.097L169.57 134.158L166.755 134.631Z" fill="white"/>
<path fill-rule="evenodd" clip-rule="evenodd" d="M108.96 151.201L104.596 150.471L116.698 78.4068L121.061 79.1373C122.377 79.3578 123.265 80.6021 123.045 81.9162L111.743 149.221C111.523 150.535 110.277 151.422 108.96 151.201Z" fill="#424DC1"/>
<path fill-rule="evenodd" clip-rule="evenodd" d="M109.194 148.679L104.464 147.887L115.728 80.8051L120.458 81.5975L109.194 148.679Z" fill="#00ADB5"/>
<path fill-rule="evenodd" clip-rule="evenodd" d="M100.067 156.608L60.3309 149.953C57.568 149.49 55.704 146.879 56.1672 144.119L68.7209 69.3585C69.1841 66.5993 71.7994 64.7377 74.5622 65.2003L114.298 71.8549C117.062 72.3175 118.925 74.9296 118.462 77.6888L105.908 152.45C105.445 155.209 102.83 157.07 100.067 156.608Z" fill="url(#paint5_linear_1_52)"/>
<path fill-rule="evenodd" clip-rule="evenodd" d="M70.6995 147.746L60.4146 146.024L61.4721 139.726L71.7571 141.448L70.6995 147.746Z" fill="#00ADB5"/>
<path fill-rule="evenodd" clip-rule="evenodd" d="M85.6537 150.25L75.3687 148.528L76.4263 142.23L86.7112 143.952L85.6537 150.25Z" fill="#00ADB5"/>
<path fill-rule="evenodd" clip-rule="evenodd" d="M100.608 152.755L90.3229 151.033L91.3805 144.734L101.665 146.457L100.608 152.755Z" fill="#D67086"/>
<path fill-rule="evenodd" clip-rule="evenodd" d="M105.243 106.539L72.107 100.99C70.382 100.701 69.2181 99.0705 69.5074 97.3478L73.3678 74.357C73.657 72.6346 75.2901 71.472 77.0152 71.7609L110.151 77.3104C111.876 77.5995 113.04 79.2298 112.751 80.9528L108.89 103.943C108.601 105.666 106.968 106.829 105.243 106.539Z" fill="white"/>
<path fill-rule="evenodd" clip-rule="evenodd" d="M106.548 106.848C106.424 106.848 106.298 106.838 106.172 106.817L71.2388 100.966C70.549 100.851 69.985 100.434 69.6595 99.8734C69.8583 99.9027 70.0572 99.9325 70.2557 99.963C70.7196 100.489 71.361 100.865 72.107 100.99L105.243 106.539C105.421 106.569 105.597 106.584 105.771 106.584C107.29 106.584 108.631 105.489 108.89 103.943L110.182 96.2491C110.203 96.2287 110.224 96.2087 110.244 96.1884L108.77 104.968C108.585 106.069 107.63 106.848 106.548 106.848Z" fill="#3A44AA"/>
<path fill-rule="evenodd" clip-rule="evenodd" d="M105.771 106.584C105.597 106.584 105.421 106.569 105.243 106.539L72.107 100.99C71.3609 100.865 70.7195 100.489 70.2557 99.963C71.6562 100.179 73.0513 100.432 74.4404 100.698C78.3276 101.441 82.238 101.986 86.192 102.208C87.891 102.304 89.6364 102.377 91.3938 102.377C96.8651 102.377 102.449 101.668 107.092 98.7242C108.204 98.0188 109.238 97.1717 110.182 96.2491L108.89 103.943C108.631 105.489 107.29 106.584 105.771 106.584Z" fill="#E0E0E0"/>
<path fill-rule="evenodd" clip-rule="evenodd" d="M103.791 74.0981C103.721 74.0981 103.649 74.092 103.577 74.08L77.3585 69.6892C76.6601 69.5723 76.1883 68.9121 76.3054 68.214L76.3299 68.0707C76.4349 67.4448 76.9779 67.0012 77.5933 67.0012C77.6639 67.0012 77.7352 67.0073 77.8071 67.0193L78.8544 67.1947L78.7408 67.8709L103.272 71.9791L103.386 71.303L104.026 71.4101C104.724 71.527 105.196 72.1872 105.079 72.885L105.054 73.0286C104.949 73.6545 104.406 74.0981 103.791 74.0981Z" fill="#3740A0"/>
<path fill-rule="evenodd" clip-rule="evenodd" d="M81.6319 86.1512L75.6121 85.1431L75.8285 83.8547L81.8479 84.8628L81.6319 86.1512Z" fill="#D4D4D4"/>
<path fill-rule="evenodd" clip-rule="evenodd" d="M89.5149 87.4714L83.4951 86.4632L83.7114 85.1748L89.7312 86.183L89.5149 87.4714Z" fill="#D4D4D4"/>
<path fill-rule="evenodd" clip-rule="evenodd" d="M97.3974 88.7913L91.3779 87.7831L91.5943 86.4953L97.6137 87.5032L97.3974 88.7913Z" fill="#D4D4D4"/>
<path fill-rule="evenodd" clip-rule="evenodd" d="M105.281 90.1114L99.2608 89.1036L99.4768 87.8152L105.497 88.8233L105.281 90.1114Z" fill="#D4D4D4"/>
<path fill-rule="evenodd" clip-rule="evenodd" d="M76.7607 111.123L68.8218 109.794C68.314 109.708 67.9716 109.229 68.0569 108.722L68.7381 104.665C68.823 104.158 69.3038 103.816 69.8109 103.902L77.7501 105.231C78.2576 105.316 78.5999 105.796 78.515 106.302L77.8338 110.359C77.7488 110.866 77.2684 111.208 76.7607 111.123Z" fill="white"/>
<path fill-rule="evenodd" clip-rule="evenodd" d="M90.7963 113.474L82.8571 112.144C82.35 112.059 82.0073 111.579 82.0923 111.072L82.7738 107.016C82.8587 106.509 83.3391 106.167 83.8466 106.252L91.7858 107.582C92.2932 107.666 92.6359 108.146 92.5506 108.653L91.8691 112.71C91.7842 113.217 91.3038 113.558 90.7963 113.474Z" fill="white"/>
<path fill-rule="evenodd" clip-rule="evenodd" d="M104.832 115.824L96.8925 114.495C96.3853 114.41 96.043 113.93 96.1279 113.423L96.8091 109.366C96.894 108.86 97.3745 108.518 97.8822 108.603L105.821 109.932C106.329 110.017 106.671 110.497 106.586 111.004L105.905 115.06C105.82 115.567 105.339 115.909 104.832 115.824Z" fill="white"/>
<path fill-rule="evenodd" clip-rule="evenodd" d="M75.2829 119.926L67.3436 118.597C66.8362 118.512 66.4935 118.032 66.5785 117.525L67.26 113.469C67.3449 112.961 67.8253 112.62 68.3328 112.705L76.272 114.034C76.7795 114.119 77.1218 114.599 77.0368 115.106L76.3557 119.163C76.2704 119.669 75.79 120.011 75.2829 119.926Z" fill="white"/>
<path fill-rule="evenodd" clip-rule="evenodd" d="M89.3182 122.277L81.379 120.947C80.8715 120.862 80.5292 120.383 80.6141 119.876L81.2953 115.819C81.3806 115.312 81.8607 114.97 82.3684 115.055L90.3073 116.385C90.8151 116.47 91.1574 116.95 91.0725 117.456L90.391 121.513C90.3061 122.02 89.8256 122.362 89.3182 122.277Z" fill="white"/>
<path fill-rule="evenodd" clip-rule="evenodd" d="M103.354 124.627L95.4146 123.298C94.9069 123.213 94.5645 122.733 94.6498 122.226L95.331 118.17C95.4159 117.663 95.8967 117.321 96.4038 117.406L104.343 118.735C104.85 118.82 105.193 119.3 105.108 119.807L104.427 123.864C104.342 124.371 103.861 124.712 103.354 124.627Z" fill="white"/>
<path fill-rule="evenodd" clip-rule="evenodd" d="M73.8044 128.729L65.8651 127.4C65.3577 127.315 65.0153 126.835 65.1006 126.329L65.7815 122.272C65.8667 121.765 66.3471 121.423 66.8546 121.508L74.7938 122.837C75.3013 122.923 75.6436 123.402 75.5587 123.909L74.8772 127.966C74.7922 128.473 74.3118 128.815 73.8044 128.729Z" fill="white"/>
<path fill-rule="evenodd" clip-rule="evenodd" d="M87.8397 131.08L79.9008 129.75C79.3934 129.666 79.0507 129.186 79.136 128.679L79.8172 124.622C79.9021 124.115 80.3825 123.773 80.8903 123.858L88.8295 125.188C89.3367 125.273 89.6793 125.753 89.594 126.26L88.9129 130.316C88.8279 130.823 88.3475 131.165 87.8397 131.08Z" fill="white"/>
<path fill-rule="evenodd" clip-rule="evenodd" d="M101.876 133.431L93.9362 132.101C93.4288 132.016 93.0864 131.536 93.1714 131.03L93.8529 126.973C93.9378 126.466 94.4182 126.124 94.9257 126.209L102.865 127.539C103.372 127.624 103.715 128.104 103.629 128.61L102.949 132.667C102.863 133.174 102.383 133.516 101.876 133.431Z" fill="white"/>
<path fill-rule="evenodd" clip-rule="evenodd" d="M72.3262 137.533L64.387 136.203C63.8795 136.118 63.5372 135.638 63.6221 135.132L64.3033 131.075C64.3882 130.568 64.8687 130.226 65.3764 130.311L73.3156 131.641C73.8231 131.726 74.1654 132.205 74.0802 132.713L73.3993 136.769C73.3141 137.276 72.8336 137.618 72.3262 137.533Z" fill="white"/>
<path fill-rule="evenodd" clip-rule="evenodd" d="M86.3619 139.883L78.4227 138.554C77.9149 138.469 77.5726 137.989 77.6575 137.482L78.339 133.426C78.4243 132.919 78.9044 132.577 79.4118 132.662L87.351 133.991C87.8585 134.076 88.2008 134.556 88.1159 135.063L87.4347 139.12C87.3495 139.626 86.8694 139.968 86.3619 139.883Z" fill="white"/>
<path fill-rule="evenodd" clip-rule="evenodd" d="M100.397 142.234L92.4581 140.904C91.9506 140.819 91.6083 140.339 91.6936 139.833L92.3744 135.776C92.4597 135.269 92.9401 134.927 93.4472 135.012L101.386 136.342C101.894 136.427 102.237 136.907 102.152 137.413L101.47 141.47C101.385 141.977 100.905 142.319 100.397 142.234Z" fill="white"/>
<path fill-rule="evenodd" clip-rule="evenodd" d="M103.917 96.9668L91.503 94.8882L91.7696 93.3011L104.183 95.3804L103.917 96.9668Z" fill="#D4D4D4"/>
<path fill-rule="evenodd" clip-rule="evenodd" d="M107.949 37.7496C107.92 37.695 107.847 37.6826 107.803 37.7248L106.528 38.9341L105.719 37.3763C105.69 37.3213 105.617 37.3092 105.572 37.3515L104.298 38.5605L103.488 37.0026C103.46 36.948 103.387 36.9356 103.342 36.9781L102.068 38.1871L101.258 36.629C101.23 36.5743 101.157 36.5619 101.112 36.6045L99.8376 37.8135L99.0279 36.2553C98.9996 36.2007 98.9268 36.1886 98.8819 36.2312L97.6074 37.4401L96.798 35.8823C96.7697 35.8273 96.6965 35.8153 96.652 35.8575L95.3774 37.0665L94.5677 35.5086C94.5394 35.454 94.4666 35.4416 94.4217 35.4842L93.1475 36.6928L92.3378 35.135C92.3092 35.0803 92.2363 35.0683 92.1914 35.1108L90.9172 36.3195L90.1075 34.7617C90.0789 34.707 90.006 34.6946 89.9612 34.7372L88.687 35.9462L87.8773 34.3883C87.849 34.3334 87.7758 34.3213 87.7312 34.3635L86.457 35.5725L85.6473 34.0147C85.619 33.96 85.5462 33.9479 85.5013 33.9902L84.2268 35.1992L78.7408 67.8709L103.272 71.9791L108.758 39.3074L107.949 37.7496Z" fill="#E0EBEE"/>
<path fill-rule="evenodd" clip-rule="evenodd" d="M92.5077 57.6552L82.2596 55.9391L82.3398 55.4619L92.5879 57.1779L92.5077 57.6552Z" fill="#D4D4D4"/>
<path fill-rule="evenodd" clip-rule="evenodd" d="M84.1068 56.8246L82.1658 56.4992L82.2138 56.2133L84.1549 56.5383L84.1068 56.8246Z" fill="#D4D4D4"/>
<path fill-rule="evenodd" clip-rule="evenodd" d="M103.263 59.4564L99.4654 58.8203L99.5452 58.343L103.343 58.9791L103.263 59.4564Z" fill="#D4D4D4"/>
<path fill-rule="evenodd" clip-rule="evenodd" d="M57.0876 114.136L60.5421 113.401L62.1955 110.765L62.9327 110.831L62.8882 111.741L64.8878 109.946L67.0684 109.857L68.8517 112.146L68.8485 115.143L66.3847 116.67L62.9381 116.778L58.253 117.989L57.0876 114.136Z" fill="#EFBFA5"/>
<path fill-rule="evenodd" clip-rule="evenodd" d="M58.6736 112.187L41.8916 115.028L25.2025 86.8223L18.3558 109.472L30.1237 127.635L37.6917 130.427L62.5026 118.349L58.6736 112.187Z" fill="url(#paint6_linear_1_52)"/>
<path fill-rule="evenodd" clip-rule="evenodd" d="M181.418 123.547L176.053 123.305L176.057 121.01L179.768 120.364L179.265 119.278L183.831 120.043L184.15 122.429L181.418 123.547Z" fill="#B97262"/>
<path fill-rule="evenodd" clip-rule="evenodd" d="M215.031 95.3546L205.961 114.27L182.372 119.266L183.247 123.968L212.406 124.234L228.713 103.582L215.031 95.3546Z" fill="url(#paint7_linear_1_52)"/>
<path d="M7.64944 72.3386L9.28019 75.6439C9.3159 75.7162 9.38483 75.7663 9.46444 75.7778L13.1108 76.3077C13.3116 76.3369 13.3917 76.5837 13.2465 76.7254L10.608 79.2983C10.5503 79.3545 10.5241 79.4355 10.5376 79.515L11.1604 83.148C11.1947 83.3481 10.9849 83.5007 10.8053 83.4062L7.54396 81.691C7.47269 81.6536 7.38741 81.6536 7.31631 81.691L4.05497 83.406C3.87539 83.5003 3.66544 83.3481 3.69982 83.1479L4.32268 79.5148C4.33636 79.4354 4.30999 79.3542 4.25225 79.2981L1.61377 76.7253C1.4684 76.5837 1.54868 76.3368 1.74946 76.3075L5.39582 75.7776C5.4756 75.7661 5.54453 75.7158 5.58008 75.6437L7.21083 72.3384C7.30029 72.1566 7.55964 72.1566 7.64944 72.3386Z" fill="url(#paint8_linear_1_52)"/>
<path d="M186.367 43.245L187.998 46.5503C188.033 46.6226 188.102 46.6727 188.182 46.6842L191.828 47.2141C192.029 47.2433 192.109 47.4901 191.964 47.6319L189.326 50.2047C189.268 50.261 189.242 50.3419 189.255 50.4214L189.878 54.0544C189.912 54.2545 189.702 54.4071 189.523 54.3126L186.261 52.5974C186.19 52.56 186.105 52.56 186.034 52.5974L182.773 54.3126C182.593 54.4069 182.383 54.2546 182.417 54.0544L183.04 50.4214C183.054 50.3419 183.028 50.2608 182.97 50.2047L180.331 47.6319C180.186 47.4903 180.266 47.2433 180.467 47.2141L184.113 46.6842C184.193 46.6727 184.262 46.6224 184.298 46.5503L185.928 43.245C186.017 43.063 186.277 43.063 186.367 43.245Z" fill="url(#paint9_linear_1_52)"/>
<g filter="url(#filter0_f_1_52)">
<circle cx="127.057" cy="36.4586" r="4.98747" stroke="#00ADB5" stroke-width="2"/>
</g>
<circle cx="144.514" cy="78.0208" r="4.15622" stroke="#8270B0" stroke-width="2"/>
<ellipse cx="108.99" cy="41.9263" rx="1.57651" ry="1.5771" fill="#B0C568"/>
<ellipse cx="91.228" cy="6.83934" rx="1.57651" ry="1.5771" fill="#B0C568"/>
<ellipse cx="144.943" cy="29.2505" rx="1.57651" ry="1.5771" fill="#F09EA0"/>
<ellipse cx="173.527" cy="1.5771" rx="1.57651" ry="1.5771" fill="#67D1D3"/>
<ellipse cx="99.6806" cy="73.3913" rx="1.57651" ry="1.5771" fill="#F09EA0"/>
<ellipse cx="168.75" cy="59.5764" rx="1.57651" ry="1.5771" fill="#F09EA0"/>
<ellipse cx="142.508" cy="58.0004" rx="1.57651" ry="1.5771" fill="#67D1D3"/>
<ellipse cx="92.8045" cy="44.0614" rx="1.57651" ry="1.5771" fill="#67D1D3"/>
<ellipse cx="119.195" cy="4.7313" rx="1.57651" ry="1.5771" fill="#67D1D3"/>
<defs>
<filter id="filter0_f_1_52" x="118.352" y="27.7528" width="17.4115" height="17.4115" filterUnits="userSpaceOnUse" color-interpolation-filters="sRGB">
<feFlood flood-opacity="0" result="BackgroundImageFix"/>
<feBlend mode="normal" in="SourceGraphic" in2="BackgroundImageFix" result="shape"/>
<feGaussianBlur stdDeviation="1.35914" result="effect1_foregroundBlur_1_52"/>
</filter>
<linearGradient id="paint0_linear_1_52" x1="193.915" y1="143.008" x2="193.915" y2="223.648" gradientUnits="userSpaceOnUse">
<stop stop-color="#3E568F"/>
<stop offset="1" stop-color="#1D2B56"/>
</linearGradient>
<linearGradient id="paint1_linear_1_52" x1="198.194" y1="84.3977" x2="198.194" y2="163.762" gradientUnits="userSpaceOnUse">
<stop stop-color="#00ADB5"/>
<stop offset="1" stop-color="#45D8DF"/>
</linearGradient>
<linearGradient id="paint2_linear_1_52" x1="10.3317" y1="79.1886" x2="10.3317" y2="151.123" gradientUnits="userSpaceOnUse">
<stop stop-color="#00ADB5"/>
<stop offset="1" stop-color="#45D8DF"/>
</linearGradient>
<linearGradient id="paint3_linear_1_52" x1="18.1683" y1="125.629" x2="18.1683" y2="222.972" gradientUnits="userSpaceOnUse">
<stop stop-color="#00ADB5"/>
<stop offset="1" stop-color="#45D8DF"/>
</linearGradient>
<linearGradient id="paint4_linear_1_52" x1="141.844" y1="74.2592" x2="141.844" y2="139.83" gradientUnits="userSpaceOnUse">
<stop stop-color="#00ADB5"/>
<stop offset="1" stop-color="#45D8DF"/>
</linearGradient>
<linearGradient id="paint5_linear_1_52" x1="57.0466" y1="65.1298" x2="57.0466" y2="153.892" gradientUnits="userSpaceOnUse">
<stop stop-color="#00ADB5"/>
<stop offset="1" stop-color="#45D8DF"/>
</linearGradient>
<linearGradient id="paint6_linear_1_52" x1="19.0276" y1="86.8223" x2="19.0276" y2="129.1" gradientUnits="userSpaceOnUse">
<stop stop-color="#00ADB5"/>
<stop offset="1" stop-color="#45D8DF"/>
</linearGradient>
<linearGradient id="paint7_linear_1_52" x1="203.239" y1="150.016" x2="224.363" y2="107.214" gradientUnits="userSpaceOnUse">
<stop stop-color="#9CA6EB"/>
<stop offset="1" stop-color="#6D77D5"/>
</linearGradient>
<linearGradient id="paint8_linear_1_52" x1="1.71881" y1="72.2021" x2="1.71881" y2="83.093" gradientUnits="userSpaceOnUse">
<stop stop-color="#00ADB5"/>
<stop offset="1" stop-color="#45D8DF"/>
</linearGradient>
<linearGradient id="paint9_linear_1_52" x1="180.436" y1="43.1085" x2="180.436" y2="53.9994" gradientUnits="userSpaceOnUse">
<stop stop-color="#00ADB5"/>
<stop offset="1" stop-color="#45D8DF"/>
</linearGradient>
</defs>
</svg>
