<svg width="352" height="304" viewBox="0 0 352 304" fill="none" xmlns="http://www.w3.org/2000/svg">
<path d="M3.76705 80.1818V68.3636H4.52415V80.1818H3.76705ZM6.31534 71.9091C6.25994 71.4413 6.03527 71.0781 5.64134 70.8196C5.2474 70.5611 4.7642 70.4318 4.19176 70.4318C3.7732 70.4318 3.40696 70.4995 3.09304 70.6349C2.7822 70.7704 2.53906 70.9566 2.36364 71.1935C2.19129 71.4305 2.10511 71.6998 2.10511 72.0014C2.10511 72.2538 2.16513 72.4708 2.28516 72.6523C2.40826 72.8308 2.56522 72.9801 2.75604 73.1001C2.94685 73.2171 3.1469 73.314 3.35618 73.391C3.56546 73.4648 3.75781 73.5249 3.93324 73.571L4.89347 73.8295C5.13968 73.8942 5.41359 73.9834 5.7152 74.0973C6.01989 74.2112 6.31072 74.3666 6.58771 74.5636C6.86778 74.7575 7.0986 75.0067 7.28019 75.3114C7.46177 75.6161 7.55256 75.9901 7.55256 76.4332C7.55256 76.9441 7.41868 77.4058 7.15092 77.8182C6.88625 78.2306 6.49846 78.5584 5.98757 78.8015C5.47976 79.0446 4.86269 79.1662 4.13636 79.1662C3.45928 79.1662 2.87299 79.0569 2.37749 78.8384C1.88506 78.6199 1.49728 78.3152 1.21413 77.9244C0.934067 77.5335 0.775568 77.0795 0.738636 76.5625H1.92045C1.95123 76.9195 2.07126 77.215 2.28054 77.4489C2.4929 77.6797 2.76065 77.852 3.08381 77.9659C3.41004 78.0767 3.76089 78.1321 4.13636 78.1321C4.57339 78.1321 4.96579 78.0613 5.31357 77.9197C5.66134 77.7751 5.93679 77.575 6.13992 77.3196C6.34304 77.0611 6.4446 76.7595 6.4446 76.4148C6.4446 76.1009 6.35689 75.8454 6.18146 75.6484C6.00604 75.4515 5.77521 75.2914 5.48899 75.1683C5.20277 75.0452 4.89347 74.9375 4.56108 74.8452L3.39773 74.5128C2.65909 74.3004 2.07434 73.9973 1.64347 73.6033C1.21259 73.2094 0.997159 72.6939 0.997159 72.0568C0.997159 71.5275 1.14027 71.0658 1.42649 70.6719C1.71579 70.2749 2.10357 69.9671 2.58984 69.7486C3.07919 69.527 3.62547 69.4162 4.22869 69.4162C4.83807 69.4162 5.37973 69.5254 5.85369 69.744C6.32765 69.9594 6.70313 70.2549 6.98011 70.6303C7.26018 71.0058 7.40791 71.4321 7.4233 71.9091H6.31534ZM12.4633 79.1293C11.854 79.1293 11.3108 79.0246 10.8337 78.8153C10.3598 78.6061 9.98275 78.3152 9.70268 77.9428C9.42569 77.5674 9.27489 77.1319 9.25027 76.6364H10.4136C10.4382 76.9411 10.5429 77.2042 10.7275 77.4258C10.9122 77.6443 11.1538 77.8136 11.4523 77.9336C11.7509 78.0536 12.0817 78.1136 12.4449 78.1136C12.8511 78.1136 13.2112 78.0429 13.5251 77.9013C13.839 77.7597 14.0853 77.5627 14.2638 77.3104C14.4423 77.058 14.5315 76.7656 14.5315 76.4332C14.5315 76.0855 14.4453 75.7792 14.273 75.5146C14.1006 75.2468 13.8483 75.0375 13.5159 74.8867C13.1835 74.7359 12.7773 74.6605 12.2971 74.6605H11.54V73.6449H12.2971C12.6726 73.6449 13.0019 73.5772 13.2851 73.4418C13.5713 73.3063 13.7944 73.1155 13.9545 72.8693C14.1176 72.6231 14.1991 72.3338 14.1991 72.0014C14.1991 71.6813 14.1283 71.4028 13.9868 71.1658C13.8452 70.9289 13.6452 70.7442 13.3866 70.6119C13.1312 70.4795 12.8296 70.4134 12.4818 70.4134C12.1556 70.4134 11.8478 70.4734 11.5585 70.5934C11.2723 70.7103 11.0384 70.8812 10.8568 71.1058C10.6752 71.3274 10.5767 71.5952 10.5613 71.9091H9.45339C9.47186 71.4136 9.62112 70.9796 9.90119 70.6072C10.1813 70.2318 10.5475 69.9394 10.9999 69.7301C11.4554 69.5208 11.9555 69.4162 12.5003 69.4162C13.085 69.4162 13.5867 69.5347 14.0052 69.7717C14.4238 70.0056 14.7454 70.3149 14.9701 70.6996C15.1948 71.0843 15.3071 71.4998 15.3071 71.946C15.3071 72.4785 15.1671 72.9324 14.887 73.3079C14.61 73.6834 14.233 73.9434 13.7559 74.0881V74.1619C14.353 74.2604 14.8193 74.5143 15.1547 74.9237C15.4902 75.3299 15.6579 75.8331 15.6579 76.4332C15.6579 76.9472 15.5179 77.4089 15.2378 77.8182C14.9608 78.2244 14.5823 78.5445 14.1022 78.7784C13.6221 79.0123 13.0758 79.1293 12.4633 79.1293ZM18.5802 76.4148L18.5617 75.0668H18.7833L21.8856 71.9091H23.2336L19.9282 75.2514H19.8358L18.5802 76.4148ZM17.5645 79V69.5455H18.654V79H17.5645ZM22.0702 79L19.3003 75.4915L20.0759 74.7344L23.4552 79H22.0702Z" fill="#545F7A"/>
<path d="M3.76705 17.1818V5.36364H4.52415V17.1818H3.76705ZM6.31534 8.90909C6.25994 8.44129 6.03527 8.07812 5.64134 7.8196C5.2474 7.56108 4.7642 7.43182 4.19176 7.43182C3.7732 7.43182 3.40696 7.49953 3.09304 7.63494C2.7822 7.77036 2.53906 7.95656 2.36364 8.19354C2.19129 8.43052 2.10511 8.69981 2.10511 9.00142C2.10511 9.25379 2.16513 9.47076 2.28516 9.65234C2.40826 9.83085 2.56522 9.98011 2.75604 10.1001C2.94685 10.2171 3.1469 10.314 3.35618 10.391C3.56546 10.4648 3.75781 10.5249 3.93324 10.571L4.89347 10.8295C5.13968 10.8942 5.41359 10.9834 5.7152 11.0973C6.01989 11.2112 6.31072 11.3666 6.58771 11.5636C6.86778 11.7575 7.0986 12.0067 7.28019 12.3114C7.46177 12.6161 7.55256 12.9901 7.55256 13.4332C7.55256 13.9441 7.41868 14.4058 7.15092 14.8182C6.88625 15.2306 6.49846 15.5584 5.98757 15.8015C5.47976 16.0446 4.86269 16.1662 4.13636 16.1662C3.45928 16.1662 2.87299 16.0569 2.37749 15.8384C1.88506 15.6199 1.49728 15.3152 1.21413 14.9244C0.934067 14.5335 0.775568 14.0795 0.738636 13.5625H1.92045C1.95123 13.9195 2.07126 14.215 2.28054 14.4489C2.4929 14.6797 2.76065 14.852 3.08381 14.9659C3.41004 15.0767 3.76089 15.1321 4.13636 15.1321C4.57339 15.1321 4.96579 15.0613 5.31357 14.9197C5.66134 14.7751 5.93679 14.575 6.13992 14.3196C6.34304 14.0611 6.4446 13.7595 6.4446 13.4148C6.4446 13.1009 6.35689 12.8454 6.18146 12.6484C6.00604 12.4515 5.77521 12.2914 5.48899 12.1683C5.20277 12.0452 4.89347 11.9375 4.56108 11.8452L3.39773 11.5128C2.65909 11.3004 2.07434 10.9973 1.64347 10.6033C1.21259 10.2094 0.997159 9.69389 0.997159 9.05682C0.997159 8.52746 1.14027 8.06581 1.42649 7.67188C1.71579 7.27486 2.10357 6.96709 2.58984 6.74858C3.07919 6.52699 3.62547 6.41619 4.22869 6.41619C4.83807 6.41619 5.37973 6.52545 5.85369 6.74396C6.32765 6.9594 6.70313 7.25485 6.98011 7.63033C7.26018 8.0058 7.40791 8.43205 7.4233 8.90909H6.31534ZM9.04714 14.0611V13.1193L13.202 6.54545H13.8852V8.00426H13.4236L10.2844 12.9716V13.0455H15.8795V14.0611H9.04714ZM13.4974 16V13.7749V13.3363V6.54545H14.5869V16H13.4974ZM18.6436 13.4148L18.6252 12.0668H18.8468L21.949 8.90909H23.2971L19.9917 12.2514H19.8993L18.6436 13.4148ZM17.628 16V6.54545H18.7175V16H17.628ZM22.1337 16L19.3638 12.4915L20.1394 11.7344L23.5186 16H22.1337Z" fill="#545F7A"/>
<path d="M3.76705 144.182V132.364H4.52415V144.182H3.76705ZM6.31534 135.909C6.25994 135.441 6.03527 135.078 5.64134 134.82C5.2474 134.561 4.7642 134.432 4.19176 134.432C3.7732 134.432 3.40696 134.5 3.09304 134.635C2.7822 134.77 2.53906 134.957 2.36364 135.194C2.19129 135.431 2.10511 135.7 2.10511 136.001C2.10511 136.254 2.16513 136.471 2.28516 136.652C2.40826 136.831 2.56522 136.98 2.75604 137.1C2.94685 137.217 3.1469 137.314 3.35618 137.391C3.56546 137.465 3.75781 137.525 3.93324 137.571L4.89347 137.83C5.13968 137.894 5.41359 137.983 5.7152 138.097C6.01989 138.211 6.31072 138.367 6.58771 138.564C6.86778 138.757 7.0986 139.007 7.28019 139.311C7.46177 139.616 7.55256 139.99 7.55256 140.433C7.55256 140.944 7.41868 141.406 7.15092 141.818C6.88625 142.231 6.49846 142.558 5.98757 142.801C5.47976 143.045 4.86269 143.166 4.13636 143.166C3.45928 143.166 2.87299 143.057 2.37749 142.838C1.88506 142.62 1.49728 142.315 1.21413 141.924C0.934067 141.533 0.775568 141.08 0.738636 140.562H1.92045C1.95123 140.92 2.07126 141.215 2.28054 141.449C2.4929 141.68 2.76065 141.852 3.08381 141.966C3.41004 142.077 3.76089 142.132 4.13636 142.132C4.57339 142.132 4.96579 142.061 5.31357 141.92C5.66134 141.775 5.93679 141.575 6.13992 141.32C6.34304 141.061 6.4446 140.759 6.4446 140.415C6.4446 140.101 6.35689 139.845 6.18146 139.648C6.00604 139.451 5.77521 139.291 5.48899 139.168C5.20277 139.045 4.89347 138.937 4.56108 138.845L3.39773 138.513C2.65909 138.3 2.07434 137.997 1.64347 137.603C1.21259 137.209 0.997159 136.694 0.997159 136.057C0.997159 135.527 1.14027 135.066 1.42649 134.672C1.71579 134.275 2.10357 133.967 2.58984 133.749C3.07919 133.527 3.62547 133.416 4.22869 133.416C4.83807 133.416 5.37973 133.525 5.85369 133.744C6.32765 133.959 6.70313 134.255 6.98011 134.63C7.26018 135.006 7.40791 135.432 7.4233 135.909H6.31534ZM9.26873 143V142.169L12.3895 138.753C12.7557 138.353 13.0573 138.005 13.2943 137.71C13.5313 137.411 13.7067 137.131 13.8206 136.869C13.9375 136.605 13.996 136.328 13.996 136.038C13.996 135.706 13.916 135.418 13.7559 135.175C13.599 134.932 13.3836 134.744 13.1096 134.612C12.8357 134.48 12.528 134.413 12.1863 134.413C11.8232 134.413 11.5062 134.489 11.2354 134.64C10.9676 134.787 10.7599 134.995 10.6121 135.263C10.4675 135.531 10.3952 135.844 10.3952 136.205H9.30566C9.30566 135.651 9.43339 135.164 9.68883 134.746C9.94428 134.327 10.2921 134.001 10.7322 133.767C11.1753 133.533 11.6724 133.416 12.2233 133.416C12.7773 133.416 13.2681 133.533 13.6959 133.767C14.1237 134.001 14.4592 134.316 14.7023 134.713C14.9455 135.11 15.067 135.552 15.067 136.038C15.067 136.386 15.0039 136.726 14.8778 137.059C14.7546 137.388 14.5392 137.756 14.2314 138.162C13.9268 138.565 13.5036 139.058 12.9619 139.639L10.8383 141.911V141.984H15.2332V143H9.26873ZM18.1739 140.415L18.1555 139.067H18.377L21.4793 135.909H22.8273L19.5219 139.251H19.4296L18.1739 140.415ZM17.1583 143V133.545H18.2478V143H17.1583ZM21.664 143L18.8941 139.491L19.6697 138.734L23.0489 143H21.664Z" fill="#545F7A"/>
<path d="M3.76705 208.182V196.364H4.52415V208.182H3.76705ZM6.31534 199.909C6.25994 199.441 6.03527 199.078 5.64134 198.82C5.2474 198.561 4.7642 198.432 4.19176 198.432C3.7732 198.432 3.40696 198.5 3.09304 198.635C2.7822 198.77 2.53906 198.957 2.36364 199.194C2.19129 199.431 2.10511 199.7 2.10511 200.001C2.10511 200.254 2.16513 200.471 2.28516 200.652C2.40826 200.831 2.56522 200.98 2.75604 201.1C2.94685 201.217 3.1469 201.314 3.35618 201.391C3.56546 201.465 3.75781 201.525 3.93324 201.571L4.89347 201.83C5.13968 201.894 5.41359 201.983 5.7152 202.097C6.01989 202.211 6.31072 202.367 6.58771 202.564C6.86778 202.757 7.0986 203.007 7.28019 203.311C7.46177 203.616 7.55256 203.99 7.55256 204.433C7.55256 204.944 7.41868 205.406 7.15092 205.818C6.88625 206.231 6.49846 206.558 5.98757 206.801C5.47976 207.045 4.86269 207.166 4.13636 207.166C3.45928 207.166 2.87299 207.057 2.37749 206.838C1.88506 206.62 1.49728 206.315 1.21413 205.924C0.934067 205.533 0.775568 205.08 0.738636 204.562H1.92045C1.95123 204.92 2.07126 205.215 2.28054 205.449C2.4929 205.68 2.76065 205.852 3.08381 205.966C3.41004 206.077 3.76089 206.132 4.13636 206.132C4.57339 206.132 4.96579 206.061 5.31357 205.92C5.66134 205.775 5.93679 205.575 6.13992 205.32C6.34304 205.061 6.4446 204.759 6.4446 204.415C6.4446 204.101 6.35689 203.845 6.18146 203.648C6.00604 203.451 5.77521 203.291 5.48899 203.168C5.20277 203.045 4.89347 202.937 4.56108 202.845L3.39773 202.513C2.65909 202.3 2.07434 201.997 1.64347 201.603C1.21259 201.209 0.997159 200.694 0.997159 200.057C0.997159 199.527 1.14027 199.066 1.42649 198.672C1.71579 198.275 2.10357 197.967 2.58984 197.749C3.07919 197.527 3.62547 197.416 4.22869 197.416C4.83807 197.416 5.37973 197.525 5.85369 197.744C6.32765 197.959 6.70313 198.255 6.98011 198.63C7.26018 199.006 7.40791 199.432 7.4233 199.909H6.31534ZM12.5926 197.545V207H11.4477V198.746H11.3923L9.08407 200.278V199.115L11.4477 197.545H12.5926ZM16.3458 204.415L16.3273 203.067H16.5489L19.6512 199.909H20.9992L17.6938 203.251H17.6015L16.3458 204.415ZM15.3302 207V197.545H16.4197V207H15.3302ZM19.8358 207L17.066 203.491L17.8415 202.734L21.2208 207H19.8358Z" fill="#545F7A"/>
<path d="M3.76705 272.182V260.364H4.52415V272.182H3.76705ZM6.31534 263.909C6.25994 263.441 6.03527 263.078 5.64134 262.82C5.2474 262.561 4.7642 262.432 4.19176 262.432C3.7732 262.432 3.40696 262.5 3.09304 262.635C2.7822 262.77 2.53906 262.957 2.36364 263.194C2.19129 263.431 2.10511 263.7 2.10511 264.001C2.10511 264.254 2.16513 264.471 2.28516 264.652C2.40826 264.831 2.56522 264.98 2.75604 265.1C2.94685 265.217 3.1469 265.314 3.35618 265.391C3.56546 265.465 3.75781 265.525 3.93324 265.571L4.89347 265.83C5.13968 265.894 5.41359 265.983 5.7152 266.097C6.01989 266.211 6.31072 266.367 6.58771 266.564C6.86778 266.757 7.0986 267.007 7.28019 267.311C7.46177 267.616 7.55256 267.99 7.55256 268.433C7.55256 268.944 7.41868 269.406 7.15092 269.818C6.88625 270.231 6.49846 270.558 5.98757 270.801C5.47976 271.045 4.86269 271.166 4.13636 271.166C3.45928 271.166 2.87299 271.057 2.37749 270.838C1.88506 270.62 1.49728 270.315 1.21413 269.924C0.934067 269.533 0.775568 269.08 0.738636 268.562H1.92045C1.95123 268.92 2.07126 269.215 2.28054 269.449C2.4929 269.68 2.76065 269.852 3.08381 269.966C3.41004 270.077 3.76089 270.132 4.13636 270.132C4.57339 270.132 4.96579 270.061 5.31357 269.92C5.66134 269.775 5.93679 269.575 6.13992 269.32C6.34304 269.061 6.4446 268.759 6.4446 268.415C6.4446 268.101 6.35689 267.845 6.18146 267.648C6.00604 267.451 5.77521 267.291 5.48899 267.168C5.20277 267.045 4.89347 266.937 4.56108 266.845L3.39773 266.513C2.65909 266.3 2.07434 265.997 1.64347 265.603C1.21259 265.209 0.997159 264.694 0.997159 264.057C0.997159 263.527 1.14027 263.066 1.42649 262.672C1.71579 262.275 2.10357 261.967 2.58984 261.749C3.07919 261.527 3.62547 261.416 4.22869 261.416C4.83807 261.416 5.37973 261.525 5.85369 261.744C6.32765 261.959 6.70313 262.255 6.98011 262.63C7.26018 263.006 7.40791 263.432 7.4233 263.909H6.31534ZM12.3525 271.129C11.657 271.129 11.0645 270.94 10.5752 270.561C10.0858 270.18 9.71191 269.627 9.45339 268.904C9.19487 268.178 9.06561 267.301 9.06561 266.273C9.06561 265.251 9.19487 264.378 9.45339 263.655C9.71499 262.929 10.0905 262.375 10.5798 261.993C11.0722 261.609 11.6631 261.416 12.3525 261.416C13.0419 261.416 13.6313 261.609 14.1206 261.993C14.6131 262.375 14.9885 262.929 15.2471 263.655C15.5087 264.378 15.6395 265.251 15.6395 266.273C15.6395 267.301 15.5102 268.178 15.2517 268.904C14.9932 269.627 14.6192 270.18 14.1299 270.561C13.6405 270.94 13.0481 271.129 12.3525 271.129ZM12.3525 270.114C13.0419 270.114 13.5774 269.781 13.9591 269.116C14.3407 268.452 14.5315 267.504 14.5315 266.273C14.5315 265.454 14.4438 264.757 14.2684 264.181C14.096 263.606 13.8467 263.167 13.5205 262.866C13.1974 262.564 12.808 262.413 12.3525 262.413C11.6693 262.413 11.1353 262.75 10.7506 263.424C10.3659 264.095 10.1736 265.045 10.1736 266.273C10.1736 267.091 10.2597 267.787 10.4321 268.359C10.6044 268.932 10.8522 269.367 11.1753 269.666C11.5016 269.964 11.894 270.114 12.3525 270.114Z" fill="#545F7A"/>
<path d="M50.7642 291.545H51.9091V298.304C51.9091 298.907 51.7983 299.42 51.5767 299.841C51.3551 300.263 51.0427 300.583 50.6396 300.801C50.2364 301.02 49.7609 301.129 49.2131 301.129C48.696 301.129 48.2359 301.035 47.8327 300.848C47.4296 300.657 47.1126 300.386 46.8817 300.035C46.6509 299.684 46.5355 299.267 46.5355 298.784H47.6619C47.6619 299.052 47.7281 299.286 47.8604 299.486C47.9959 299.683 48.1805 299.837 48.4144 299.947C48.6483 300.058 48.9145 300.114 49.2131 300.114C49.5424 300.114 49.8224 300.044 50.0533 299.906C50.2841 299.767 50.4595 299.564 50.5795 299.297C50.7027 299.026 50.7642 298.695 50.7642 298.304V291.545ZM56.1424 301.166C55.6931 301.166 55.2853 301.082 54.919 300.912C54.5528 300.74 54.262 300.492 54.0465 300.169C53.8311 299.843 53.7234 299.449 53.7234 298.987C53.7234 298.581 53.8034 298.252 53.9634 297.999C54.1235 297.744 54.3374 297.544 54.6051 297.399C54.8729 297.254 55.1683 297.147 55.4915 297.076C55.8177 297.002 56.1455 296.944 56.4748 296.901C56.9057 296.845 57.255 296.804 57.5227 296.776C57.7936 296.745 57.9905 296.694 58.1136 296.624C58.2398 296.553 58.3029 296.43 58.3029 296.254V296.217C58.3029 295.762 58.1783 295.408 57.929 295.156C57.6828 294.903 57.3088 294.777 56.8072 294.777C56.2871 294.777 55.8793 294.891 55.5838 295.119C55.2884 295.346 55.0806 295.589 54.9606 295.848L53.9265 295.479C54.1112 295.048 54.3574 294.712 54.6651 294.472C54.976 294.229 55.3145 294.06 55.6808 293.964C56.0501 293.866 56.4132 293.817 56.7702 293.817C56.998 293.817 57.2596 293.844 57.555 293.9C57.8536 293.952 58.1413 294.061 58.4183 294.228C58.6984 294.394 58.9308 294.645 59.1154 294.98C59.3001 295.316 59.3924 295.765 59.3924 296.328V301H58.3029V300.04H58.2475C58.1737 300.194 58.0505 300.358 57.8782 300.534C57.7058 300.709 57.4766 300.858 57.1903 300.982C56.9041 301.105 56.5548 301.166 56.1424 301.166ZM56.3086 300.188C56.7395 300.188 57.1026 300.103 57.3981 299.934C57.6966 299.764 57.9213 299.546 58.0721 299.278C58.226 299.01 58.3029 298.729 58.3029 298.433V297.436C58.2567 297.491 58.1552 297.542 57.9982 297.588C57.8443 297.632 57.6658 297.67 57.4627 297.704C57.2627 297.735 57.0672 297.762 56.8764 297.787C56.6887 297.808 56.5363 297.827 56.4194 297.842C56.1362 297.879 55.8716 297.939 55.6254 298.022C55.3822 298.102 55.1853 298.224 55.0344 298.387C54.8867 298.547 54.8129 298.766 54.8129 299.043C54.8129 299.421 54.9529 299.707 55.233 299.901C55.5161 300.092 55.8746 300.188 56.3086 300.188ZM62.4704 296.734V301H61.3809V293.909H62.4335V295.017H62.5258C62.692 294.657 62.9444 294.368 63.2829 294.149C63.6215 293.928 64.0585 293.817 64.594 293.817C65.0741 293.817 65.4942 293.915 65.8543 294.112C66.2144 294.306 66.4945 294.602 66.6945 294.999C66.8946 295.393 66.9946 295.891 66.9946 296.494V301H65.9051V296.568C65.9051 296.011 65.7604 295.577 65.4711 295.266C65.1818 294.952 64.7848 294.795 64.2801 294.795C63.9323 294.795 63.6215 294.871 63.3476 295.022C63.0767 295.172 62.8628 295.393 62.7059 295.682C62.5489 295.971 62.4704 296.322 62.4704 296.734ZM75.9471 291.545V301H74.8022V292.746H74.7468L72.4386 294.278V293.115L74.8022 291.545H75.9471Z" fill="#545F7A"/>
<path d="M123.764 291.545H124.909V298.304C124.909 298.907 124.798 299.42 124.577 299.841C124.355 300.263 124.043 300.583 123.64 300.801C123.236 301.02 122.761 301.129 122.213 301.129C121.696 301.129 121.236 301.035 120.833 300.848C120.43 300.657 120.113 300.386 119.882 300.035C119.651 299.684 119.536 299.267 119.536 298.784H120.662C120.662 299.052 120.728 299.286 120.86 299.486C120.996 299.683 121.181 299.837 121.414 299.947C121.648 300.058 121.915 300.114 122.213 300.114C122.542 300.114 122.822 300.044 123.053 299.906C123.284 299.767 123.46 299.564 123.58 299.297C123.703 299.026 123.764 298.695 123.764 298.304V291.545ZM129.142 301.166C128.693 301.166 128.285 301.082 127.919 300.912C127.553 300.74 127.262 300.492 127.047 300.169C126.831 299.843 126.723 299.449 126.723 298.987C126.723 298.581 126.803 298.252 126.963 297.999C127.123 297.744 127.337 297.544 127.605 297.399C127.873 297.254 128.168 297.147 128.491 297.076C128.818 297.002 129.145 296.944 129.475 296.901C129.906 296.845 130.255 296.804 130.523 296.776C130.794 296.745 130.991 296.694 131.114 296.624C131.24 296.553 131.303 296.43 131.303 296.254V296.217C131.303 295.762 131.178 295.408 130.929 295.156C130.683 294.903 130.309 294.777 129.807 294.777C129.287 294.777 128.879 294.891 128.584 295.119C128.288 295.346 128.081 295.589 127.961 295.848L126.926 295.479C127.111 295.048 127.357 294.712 127.665 294.472C127.976 294.229 128.315 294.06 128.681 293.964C129.05 293.866 129.413 293.817 129.77 293.817C129.998 293.817 130.26 293.844 130.555 293.9C130.854 293.952 131.141 294.061 131.418 294.228C131.698 294.394 131.931 294.645 132.115 294.98C132.3 295.316 132.392 295.765 132.392 296.328V301H131.303V300.04H131.248C131.174 300.194 131.051 300.358 130.878 300.534C130.706 300.709 130.477 300.858 130.19 300.982C129.904 301.105 129.555 301.166 129.142 301.166ZM129.309 300.188C129.739 300.188 130.103 300.103 130.398 299.934C130.697 299.764 130.921 299.546 131.072 299.278C131.226 299.01 131.303 298.729 131.303 298.433V297.436C131.257 297.491 131.155 297.542 130.998 297.588C130.844 297.632 130.666 297.67 130.463 297.704C130.263 297.735 130.067 297.762 129.876 297.787C129.689 297.808 129.536 297.827 129.419 297.842C129.136 297.879 128.872 297.939 128.625 298.022C128.382 298.102 128.185 298.224 128.034 298.387C127.887 298.547 127.813 298.766 127.813 299.043C127.813 299.421 127.953 299.707 128.233 299.901C128.516 300.092 128.875 300.188 129.309 300.188ZM135.47 296.734V301H134.381V293.909H135.434V295.017H135.526C135.692 294.657 135.944 294.368 136.283 294.149C136.621 293.928 137.059 293.817 137.594 293.817C138.074 293.817 138.494 293.915 138.854 294.112C139.214 294.306 139.494 294.602 139.695 294.999C139.895 295.393 139.995 295.891 139.995 296.494V301H138.905V296.568C138.905 296.011 138.76 295.577 138.471 295.266C138.182 294.952 137.785 294.795 137.28 294.795C136.932 294.795 136.621 294.871 136.348 295.022C136.077 295.172 135.863 295.393 135.706 295.682C135.549 295.971 135.47 296.322 135.47 296.734ZM148.652 301.129C148.018 301.129 147.458 301.017 146.971 300.792C146.488 300.565 146.111 300.252 145.84 299.855C145.569 299.455 145.435 299 145.439 298.489C145.435 298.089 145.514 297.719 145.674 297.381C145.834 297.039 146.053 296.754 146.33 296.527C146.61 296.296 146.922 296.15 147.267 296.088V296.033C146.814 295.916 146.454 295.662 146.186 295.271C145.919 294.877 145.786 294.429 145.789 293.928C145.786 293.447 145.908 293.018 146.154 292.64C146.4 292.261 146.739 291.962 147.17 291.744C147.604 291.525 148.098 291.416 148.652 291.416C149.199 291.416 149.689 291.525 150.12 291.744C150.551 291.962 150.889 292.261 151.135 292.64C151.385 293.018 151.511 293.447 151.514 293.928C151.511 294.429 151.374 294.877 151.103 295.271C150.835 295.662 150.48 295.916 150.037 296.033V296.088C150.378 296.15 150.686 296.296 150.96 296.527C151.234 296.754 151.452 297.039 151.615 297.381C151.779 297.719 151.862 298.089 151.865 298.489C151.862 299 151.723 299.455 151.449 299.855C151.178 300.252 150.801 300.565 150.318 300.792C149.838 301.017 149.283 301.129 148.652 301.129ZM148.652 300.114C149.079 300.114 149.449 300.044 149.76 299.906C150.07 299.767 150.31 299.572 150.48 299.32C150.649 299.067 150.735 298.772 150.738 298.433C150.735 298.076 150.643 297.761 150.461 297.487C150.28 297.213 150.032 296.998 149.718 296.841C149.407 296.684 149.052 296.605 148.652 296.605C148.248 296.605 147.888 296.684 147.571 296.841C147.257 296.998 147.01 297.213 146.828 297.487C146.65 297.761 146.562 298.076 146.565 298.433C146.562 298.772 146.643 299.067 146.81 299.32C146.979 299.572 147.221 299.767 147.534 299.906C147.848 300.044 148.221 300.114 148.652 300.114ZM148.652 295.626C148.99 295.626 149.29 295.559 149.552 295.423C149.817 295.288 150.024 295.099 150.175 294.855C150.326 294.612 150.403 294.328 150.406 294.001C150.403 293.681 150.327 293.403 150.18 293.166C150.032 292.926 149.827 292.741 149.566 292.612C149.304 292.48 148.999 292.413 148.652 292.413C148.298 292.413 147.988 292.48 147.724 292.612C147.459 292.741 147.254 292.926 147.11 293.166C146.965 293.403 146.894 293.681 146.897 294.001C146.894 294.328 146.967 294.612 147.114 294.855C147.265 295.099 147.473 295.288 147.738 295.423C148.002 295.559 148.307 295.626 148.652 295.626Z" fill="#545F7A"/>
<path d="M195.764 291.545H196.909V298.304C196.909 298.907 196.798 299.42 196.577 299.841C196.355 300.263 196.043 300.583 195.64 300.801C195.236 301.02 194.761 301.129 194.213 301.129C193.696 301.129 193.236 301.035 192.833 300.848C192.43 300.657 192.113 300.386 191.882 300.035C191.651 299.684 191.536 299.267 191.536 298.784H192.662C192.662 299.052 192.728 299.286 192.86 299.486C192.996 299.683 193.181 299.837 193.414 299.947C193.648 300.058 193.915 300.114 194.213 300.114C194.542 300.114 194.822 300.044 195.053 299.906C195.284 299.767 195.46 299.564 195.58 299.297C195.703 299.026 195.764 298.695 195.764 298.304V291.545ZM201.142 301.166C200.693 301.166 200.285 301.082 199.919 300.912C199.553 300.74 199.262 300.492 199.047 300.169C198.831 299.843 198.723 299.449 198.723 298.987C198.723 298.581 198.803 298.252 198.963 297.999C199.123 297.744 199.337 297.544 199.605 297.399C199.873 297.254 200.168 297.147 200.491 297.076C200.818 297.002 201.145 296.944 201.475 296.901C201.906 296.845 202.255 296.804 202.523 296.776C202.794 296.745 202.991 296.694 203.114 296.624C203.24 296.553 203.303 296.43 203.303 296.254V296.217C203.303 295.762 203.178 295.408 202.929 295.156C202.683 294.903 202.309 294.777 201.807 294.777C201.287 294.777 200.879 294.891 200.584 295.119C200.288 295.346 200.081 295.589 199.961 295.848L198.926 295.479C199.111 295.048 199.357 294.712 199.665 294.472C199.976 294.229 200.315 294.06 200.681 293.964C201.05 293.866 201.413 293.817 201.77 293.817C201.998 293.817 202.26 293.844 202.555 293.9C202.854 293.952 203.141 294.061 203.418 294.228C203.698 294.394 203.931 294.645 204.115 294.98C204.3 295.316 204.392 295.765 204.392 296.328V301H203.303V300.04H203.248C203.174 300.194 203.051 300.358 202.878 300.534C202.706 300.709 202.477 300.858 202.19 300.982C201.904 301.105 201.555 301.166 201.142 301.166ZM201.309 300.188C201.739 300.188 202.103 300.103 202.398 299.934C202.697 299.764 202.921 299.546 203.072 299.278C203.226 299.01 203.303 298.729 203.303 298.433V297.436C203.257 297.491 203.155 297.542 202.998 297.588C202.844 297.632 202.666 297.67 202.463 297.704C202.263 297.735 202.067 297.762 201.876 297.787C201.689 297.808 201.536 297.827 201.419 297.842C201.136 297.879 200.872 297.939 200.625 298.022C200.382 298.102 200.185 298.224 200.034 298.387C199.887 298.547 199.813 298.766 199.813 299.043C199.813 299.421 199.953 299.707 200.233 299.901C200.516 300.092 200.875 300.188 201.309 300.188ZM207.47 296.734V301H206.381V293.909H207.434V295.017H207.526C207.692 294.657 207.944 294.368 208.283 294.149C208.621 293.928 209.059 293.817 209.594 293.817C210.074 293.817 210.494 293.915 210.854 294.112C211.214 294.306 211.494 294.602 211.695 294.999C211.895 295.393 211.995 295.891 211.995 296.494V301H210.905V296.568C210.905 296.011 210.76 295.577 210.471 295.266C210.182 294.952 209.785 294.795 209.28 294.795C208.932 294.795 208.621 294.871 208.348 295.022C208.077 295.172 207.863 295.393 207.706 295.682C207.549 295.971 207.47 296.322 207.47 296.734ZM220.947 291.545V301H219.802V292.746H219.747L217.439 294.278V293.115L219.802 291.545H220.947ZM226.621 301.129C226.079 301.129 225.591 301.022 225.157 300.806C224.723 300.591 224.376 300.295 224.114 299.92C223.852 299.544 223.709 299.116 223.685 298.636H224.793C224.836 299.064 225.03 299.418 225.374 299.698C225.722 299.975 226.138 300.114 226.621 300.114C227.009 300.114 227.353 300.023 227.655 299.841C227.96 299.66 228.198 299.41 228.37 299.093C228.546 298.773 228.634 298.412 228.634 298.009C228.634 297.596 228.543 297.228 228.361 296.905C228.183 296.579 227.936 296.322 227.623 296.134C227.309 295.946 226.95 295.851 226.547 295.848C226.258 295.845 225.961 295.89 225.656 295.982C225.351 296.071 225.1 296.187 224.903 296.328L223.832 296.199L224.405 291.545H229.317V292.561H225.365L225.033 295.349H225.088C225.282 295.196 225.525 295.068 225.817 294.966C226.11 294.865 226.415 294.814 226.732 294.814C227.31 294.814 227.826 294.952 228.278 295.229C228.734 295.503 229.091 295.879 229.349 296.356C229.611 296.833 229.741 297.378 229.741 297.99C229.741 298.593 229.606 299.132 229.335 299.606C229.067 300.077 228.698 300.449 228.227 300.723C227.756 300.994 227.221 301.129 226.621 301.129Z" fill="#545F7A"/>
<path d="M267.764 291.545H268.909V298.304C268.909 298.907 268.798 299.42 268.577 299.841C268.355 300.263 268.043 300.583 267.64 300.801C267.236 301.02 266.761 301.129 266.213 301.129C265.696 301.129 265.236 301.035 264.833 300.848C264.43 300.657 264.113 300.386 263.882 300.035C263.651 299.684 263.536 299.267 263.536 298.784H264.662C264.662 299.052 264.728 299.286 264.86 299.486C264.996 299.683 265.181 299.837 265.414 299.947C265.648 300.058 265.915 300.114 266.213 300.114C266.542 300.114 266.822 300.044 267.053 299.906C267.284 299.767 267.46 299.564 267.58 299.297C267.703 299.026 267.764 298.695 267.764 298.304V291.545ZM273.142 301.166C272.693 301.166 272.285 301.082 271.919 300.912C271.553 300.74 271.262 300.492 271.047 300.169C270.831 299.843 270.723 299.449 270.723 298.987C270.723 298.581 270.803 298.252 270.963 297.999C271.123 297.744 271.337 297.544 271.605 297.399C271.873 297.254 272.168 297.147 272.491 297.076C272.818 297.002 273.145 296.944 273.475 296.901C273.906 296.845 274.255 296.804 274.523 296.776C274.794 296.745 274.991 296.694 275.114 296.624C275.24 296.553 275.303 296.43 275.303 296.254V296.217C275.303 295.762 275.178 295.408 274.929 295.156C274.683 294.903 274.309 294.777 273.807 294.777C273.287 294.777 272.879 294.891 272.584 295.119C272.288 295.346 272.081 295.589 271.961 295.848L270.926 295.479C271.111 295.048 271.357 294.712 271.665 294.472C271.976 294.229 272.315 294.06 272.681 293.964C273.05 293.866 273.413 293.817 273.77 293.817C273.998 293.817 274.26 293.844 274.555 293.9C274.854 293.952 275.141 294.061 275.418 294.228C275.698 294.394 275.931 294.645 276.115 294.98C276.3 295.316 276.392 295.765 276.392 296.328V301H275.303V300.04H275.248C275.174 300.194 275.051 300.358 274.878 300.534C274.706 300.709 274.477 300.858 274.19 300.982C273.904 301.105 273.555 301.166 273.142 301.166ZM273.309 300.188C273.739 300.188 274.103 300.103 274.398 299.934C274.697 299.764 274.921 299.546 275.072 299.278C275.226 299.01 275.303 298.729 275.303 298.433V297.436C275.257 297.491 275.155 297.542 274.998 297.588C274.844 297.632 274.666 297.67 274.463 297.704C274.263 297.735 274.067 297.762 273.876 297.787C273.689 297.808 273.536 297.827 273.419 297.842C273.136 297.879 272.872 297.939 272.625 298.022C272.382 298.102 272.185 298.224 272.034 298.387C271.887 298.547 271.813 298.766 271.813 299.043C271.813 299.421 271.953 299.707 272.233 299.901C272.516 300.092 272.875 300.188 273.309 300.188ZM279.47 296.734V301H278.381V293.909H279.434V295.017H279.526C279.692 294.657 279.944 294.368 280.283 294.149C280.621 293.928 281.059 293.817 281.594 293.817C282.074 293.817 282.494 293.915 282.854 294.112C283.214 294.306 283.494 294.602 283.695 294.999C283.895 295.393 283.995 295.891 283.995 296.494V301H282.905V296.568C282.905 296.011 282.76 295.577 282.471 295.266C282.182 294.952 281.785 294.795 281.28 294.795C280.932 294.795 280.621 294.871 280.348 295.022C280.077 295.172 279.863 295.393 279.706 295.682C279.549 295.971 279.47 296.322 279.47 296.734ZM289.623 301V300.169L292.744 296.753C293.11 296.353 293.412 296.005 293.649 295.71C293.886 295.411 294.061 295.131 294.175 294.869C294.292 294.605 294.35 294.328 294.35 294.038C294.35 293.706 294.27 293.418 294.11 293.175C293.953 292.932 293.738 292.744 293.464 292.612C293.19 292.48 292.882 292.413 292.541 292.413C292.178 292.413 291.861 292.489 291.59 292.64C291.322 292.787 291.114 292.995 290.967 293.263C290.822 293.531 290.75 293.844 290.75 294.205H289.66C289.66 293.651 289.788 293.164 290.043 292.746C290.299 292.327 290.647 292.001 291.087 291.767C291.53 291.533 292.027 291.416 292.578 291.416C293.132 291.416 293.623 291.533 294.05 291.767C294.478 292.001 294.814 292.316 295.057 292.713C295.3 293.11 295.422 293.552 295.422 294.038C295.422 294.386 295.358 294.726 295.232 295.059C295.109 295.388 294.894 295.756 294.586 296.162C294.281 296.565 293.858 297.058 293.316 297.639L291.193 299.911V299.984H295.588V301H289.623ZM297.494 301V300.169L300.615 296.753C300.981 296.353 301.283 296.005 301.52 295.71C301.757 295.411 301.932 295.131 302.046 294.869C302.163 294.605 302.222 294.328 302.222 294.038C302.222 293.706 302.142 293.418 301.982 293.175C301.825 292.932 301.609 292.744 301.335 292.612C301.061 292.48 300.754 292.413 300.412 292.413C300.049 292.413 299.732 292.489 299.461 292.64C299.193 292.787 298.985 292.995 298.838 293.263C298.693 293.531 298.621 293.844 298.621 294.205H297.531C297.531 293.651 297.659 293.164 297.914 292.746C298.17 292.327 298.518 292.001 298.958 291.767C299.401 291.533 299.898 291.416 300.449 291.416C301.003 291.416 301.494 291.533 301.922 291.767C302.349 292.001 302.685 292.316 302.928 292.713C303.171 293.11 303.293 293.552 303.293 294.038C303.293 294.386 303.23 294.726 303.103 295.059C302.98 295.388 302.765 295.756 302.457 296.162C302.152 296.565 301.729 297.058 301.188 297.639L299.064 299.911V299.984H303.459V301H297.494Z" fill="#545F7A"/>
<g opacity="0.75">
<line x1="46.5" y1="11" x2="46.5" y2="266" stroke="#EAEDF4"/>
<line x1="190.5" y1="11" x2="190.5" y2="266" stroke="#EAEDF4"/>
<line x1="118.5" y1="11" x2="118.5" y2="266" stroke="#EAEDF4"/>
<line x1="334.5" y1="10" x2="334.5" y2="265" stroke="#EAEDF4"/>
<line x1="262.5" y1="11" x2="262.5" y2="266" stroke="#EAEDF4"/>
<line x1="46" y1="266.5" x2="335" y2="266.5" stroke="#EAEDF4"/>
<line x1="46" y1="202.5" x2="335" y2="202.5" stroke="#EAEDF4"/>
<line x1="46" y1="138.5" x2="335" y2="138.5" stroke="#EAEDF4"/>
<line x1="46" y1="74.5" x2="335" y2="74.5" stroke="#EAEDF4"/>
<line x1="46" y1="10.5" x2="335" y2="10.5" stroke="#EAEDF4"/>
</g>
<path d="M133.55 165.197C107.263 165.197 93.5388 130.66 67.2526 130.66C60.7231 130.66 54.0826 138.071 47 146.628V266H335V101.458C326.858 113.813 310.334 196.763 283.823 194.118C255.676 191.31 247.005 149.192 230.32 149.192C213.106 149.192 202.871 95 179.609 95C156.347 95 147.972 165.197 133.55 165.197Z" fill="url(#paint0_linear_1_776)"/>
<g filter="url(#filter0_f_1_776)">
<path d="M335 104.678C326.872 117.06 310.376 200.188 283.91 197.538C255.81 194.724 247.153 152.515 230.497 152.515C213.312 152.515 203.094 98.2063 179.871 98.2063C156.648 98.2063 148.288 168.555 133.889 168.555C107.648 168.555 93.946 133.943 67.7041 133.943C61.3439 133.943 54.8782 141.014 48 149.323" stroke="#00ADB5" stroke-opacity="0.46" stroke-width="2"/>
</g>
<path d="M335 101.472C326.866 113.853 310.359 196.982 283.874 194.332C255.755 191.518 247.092 149.309 230.424 149.309C213.227 149.309 203.002 95 179.763 95C156.523 95 148.157 165.348 133.749 165.348C107.489 165.348 93.7778 130.737 67.5176 130.737C60.907 130.737 54.1826 138.364 47 147.085" stroke="#00ADB5" stroke-width="2"/>
<circle cx="193" cy="100" r="4" fill="white" stroke="#00ADB5" stroke-width="2"/>
<g filter="url(#filter1_d_1_776)">
<path d="M135 14C135 12.8954 135.895 12 137 12H249C250.105 12 251 12.8954 251 14V74.1667C251 75.2712 250.105 76.1667 249 76.1667H239H203.977C203.361 76.1667 202.778 76.451 202.399 76.9374L194.578 86.9754C193.777 88.003 192.223 88.003 191.422 86.9754L183.601 76.9374C183.222 76.451 182.639 76.1667 182.023 76.1667H147H137C135.895 76.1667 135 75.2712 135 74.1667V14Z" fill="white"/>
</g>
<path d="M149.416 38.3636V24.7273H150.289V38.3636H149.416ZM152.148 28.9567C152.092 28.4524 151.857 28.0618 151.445 27.7848C151.033 27.5043 150.515 27.364 149.89 27.364C149.442 27.364 149.055 27.435 148.729 27.5771C148.402 27.7156 148.148 27.9073 147.967 28.1523C147.789 28.3938 147.701 28.669 147.701 28.978C147.701 29.2372 147.761 29.4609 147.882 29.6491C148.006 29.8374 148.168 29.9954 148.366 30.1232C148.569 30.2475 148.786 30.3523 149.016 30.4375C149.247 30.5192 149.469 30.5866 149.682 30.6399L150.748 30.9169C151.096 31.0021 151.452 31.1175 151.818 31.2631C152.184 31.4087 152.523 31.6005 152.836 31.8384C153.148 32.0763 153.4 32.3711 153.592 32.7227C153.787 33.0742 153.885 33.495 153.885 33.9851C153.885 34.603 153.725 35.1516 153.406 35.631C153.089 36.1104 152.63 36.4886 152.026 36.7656C151.426 37.0426 150.7 37.1811 149.847 37.1811C149.031 37.1811 148.324 37.0515 147.727 36.7923C147.131 36.533 146.664 36.1655 146.326 35.6896C145.989 35.2102 145.803 34.642 145.767 33.9851H147.418C147.45 34.3793 147.578 34.7077 147.802 34.9705C148.029 35.2298 148.319 35.4233 148.67 35.5511C149.025 35.6754 149.414 35.7376 149.837 35.7376C150.302 35.7376 150.716 35.6648 151.078 35.5192C151.444 35.37 151.731 35.1641 151.941 34.9013C152.15 34.6349 152.255 34.3242 152.255 33.9691C152.255 33.646 152.163 33.3814 151.978 33.1754C151.797 32.9695 151.55 32.799 151.238 32.6641C150.929 32.5291 150.579 32.4102 150.188 32.3072L148.899 31.9556C148.026 31.7177 147.333 31.3679 146.822 30.9062C146.314 30.4446 146.06 29.8338 146.06 29.0739C146.06 28.4453 146.23 27.8967 146.571 27.4279C146.912 26.9592 147.374 26.5952 147.956 26.3359C148.539 26.0732 149.196 25.9418 149.927 25.9418C150.666 25.9418 151.317 26.0714 151.882 26.3306C152.45 26.5898 152.898 26.9467 153.224 27.4013C153.551 27.8523 153.722 28.3707 153.736 28.9567H152.148ZM155.703 37V35.8068L159.394 31.9822C159.788 31.5668 160.113 31.2028 160.369 30.8903C160.628 30.5742 160.822 30.2741 160.949 29.9901C161.077 29.706 161.141 29.4041 161.141 29.0845C161.141 28.7223 161.056 28.4098 160.886 28.147C160.715 27.8807 160.483 27.6765 160.188 27.5344C159.893 27.3888 159.561 27.3161 159.192 27.3161C158.801 27.3161 158.46 27.396 158.169 27.5558C157.878 27.7156 157.654 27.9411 157.498 28.2322C157.342 28.5234 157.263 28.8643 157.263 29.255H155.692C155.692 28.5909 155.845 28.0103 156.15 27.5131C156.456 27.016 156.875 26.6307 157.407 26.3572C157.94 26.0803 158.545 25.9418 159.224 25.9418C159.909 25.9418 160.513 26.0785 161.035 26.3519C161.56 26.6218 161.97 26.9911 162.265 27.4599C162.56 27.9251 162.707 28.4506 162.707 29.0366C162.707 29.4414 162.631 29.8374 162.478 30.2244C162.329 30.6115 162.068 31.043 161.695 31.5188C161.322 31.9911 160.804 32.5646 160.14 33.2393L157.972 35.5085V35.5884H162.883V37H155.703ZM166.995 35.5085L166.915 36.0891C166.862 36.5153 166.772 36.9592 166.644 37.4208C166.519 37.886 166.39 38.3175 166.255 38.7152C166.123 39.1129 166.015 39.429 165.93 39.6634H164.801C164.847 39.4432 164.911 39.1449 164.992 38.7685C165.074 38.3956 165.154 37.9783 165.232 37.5167C165.31 37.055 165.369 36.5845 165.408 36.1051L165.461 35.5085H166.995ZM172.648 37.1491C171.981 37.1491 171.381 37.0213 170.848 36.7656C170.319 36.5064 169.896 36.1513 169.58 35.7003C169.264 35.2493 169.095 34.7344 169.074 34.1555H170.672C170.711 34.6243 170.919 35.0096 171.295 35.3114C171.672 35.6133 172.123 35.7642 172.648 35.7642C173.067 35.7642 173.438 35.6683 173.762 35.4766C174.088 35.2812 174.344 35.0131 174.529 34.6722C174.717 34.3313 174.811 33.9425 174.811 33.5057C174.811 33.0618 174.715 32.6658 174.523 32.3178C174.331 31.9698 174.067 31.6964 173.73 31.4975C173.396 31.2987 173.012 31.1974 172.579 31.1939C172.249 31.1939 171.917 31.2507 171.583 31.3643C171.249 31.478 170.979 31.6271 170.773 31.8118L169.266 31.5881L169.878 26.0909H175.876V27.5025H171.247L170.901 30.5547H170.965C171.178 30.3487 171.46 30.1765 171.812 30.038C172.167 29.8995 172.547 29.8303 172.952 29.8303C173.616 29.8303 174.207 29.9883 174.726 30.3043C175.248 30.6204 175.658 31.0518 175.956 31.5987C176.258 32.142 176.407 32.767 176.404 33.4737C176.407 34.1804 176.247 34.8107 175.924 35.3647C175.605 35.9187 175.161 36.3555 174.593 36.6751C174.028 36.9911 173.38 37.1491 172.648 37.1491ZM181.977 25.9418C182.463 25.9453 182.943 26.0341 183.415 26.2081C183.887 26.3821 184.313 26.6662 184.693 27.0604C185.077 27.4545 185.382 27.9872 185.609 28.6584C185.84 29.326 185.957 30.157 185.961 31.1513C185.961 32.1065 185.865 32.957 185.673 33.7028C185.482 34.445 185.206 35.0717 184.848 35.5831C184.493 36.0945 184.061 36.4833 183.553 36.7496C183.046 37.016 182.474 37.1491 181.838 37.1491C181.188 37.1491 180.611 37.0213 180.107 36.7656C179.603 36.5099 179.193 36.1566 178.877 35.7056C178.56 35.2511 178.363 34.729 178.285 34.1396H179.91C180.016 34.6083 180.233 34.9883 180.56 35.2795C180.89 35.5671 181.316 35.7109 181.838 35.7109C182.637 35.7109 183.26 35.3629 183.708 34.6669C184.155 33.9673 184.381 32.9908 184.384 31.7372H184.299C184.114 32.0426 183.884 32.3054 183.607 32.5256C183.333 32.7457 183.026 32.9162 182.685 33.0369C182.344 33.1577 181.98 33.218 181.593 33.218C180.965 33.218 180.393 33.0636 179.878 32.7546C179.363 32.4457 178.953 32.0213 178.647 31.4815C178.342 30.9418 178.189 30.3256 178.189 29.6332C178.189 28.9442 178.346 28.3192 178.658 27.7582C178.974 27.1971 179.415 26.7532 179.979 26.4265C180.547 26.0962 181.213 25.9347 181.977 25.9418ZM181.982 27.3267C181.566 27.3267 181.192 27.4297 180.858 27.6357C180.528 27.8381 180.267 28.1133 180.075 28.4613C179.883 28.8058 179.787 29.1893 179.787 29.6119C179.787 30.0344 179.88 30.418 180.064 30.7624C180.253 31.1033 180.508 31.375 180.831 31.5774C181.158 31.7763 181.531 31.8757 181.95 31.8757C182.263 31.8757 182.554 31.8153 182.824 31.6946C183.093 31.5739 183.33 31.407 183.532 31.1939C183.734 30.9773 183.892 30.7322 184.006 30.4588C184.12 30.1854 184.177 29.8977 184.177 29.5959C184.177 29.1946 184.081 28.8217 183.889 28.4773C183.701 28.1328 183.441 27.8558 183.111 27.6463C182.781 27.4332 182.405 27.3267 181.982 27.3267ZM191.571 37.1491C190.808 37.1491 190.133 37.0178 189.547 36.755C188.965 36.4922 188.509 36.13 188.178 35.6683C187.848 35.2067 187.685 34.6811 187.688 34.0916C187.685 33.63 187.779 33.2056 187.971 32.8185C188.166 32.4279 188.43 32.103 188.764 31.8438C189.098 31.581 189.471 31.4141 189.883 31.343V31.2791C189.339 31.1477 188.904 30.8565 188.578 30.4055C188.251 29.9545 188.089 29.4361 188.093 28.8501C188.089 28.2926 188.237 27.7955 188.535 27.3587C188.837 26.9183 189.251 26.5721 189.776 26.32C190.302 26.0678 190.9 25.9418 191.571 25.9418C192.235 25.9418 192.828 26.0696 193.35 26.3253C193.876 26.5774 194.29 26.9237 194.592 27.364C194.893 27.8008 195.046 28.2962 195.05 28.8501C195.046 29.4361 194.879 29.9545 194.549 30.4055C194.219 30.8565 193.789 31.1477 193.26 31.2791V31.343C193.668 31.4141 194.036 31.581 194.363 31.8438C194.693 32.103 194.956 32.4279 195.151 32.8185C195.35 33.2056 195.451 33.63 195.455 34.0916C195.451 34.6811 195.284 35.2067 194.954 35.6683C194.624 36.13 194.165 36.4922 193.58 36.755C192.997 37.0178 192.328 37.1491 191.571 37.1491ZM191.571 35.8015C192.022 35.8015 192.413 35.7269 192.743 35.5778C193.074 35.4251 193.329 35.2138 193.51 34.9439C193.691 34.6705 193.784 34.3509 193.787 33.9851C193.784 33.6051 193.684 33.2695 193.489 32.9783C193.297 32.6871 193.036 32.4581 192.706 32.2912C192.376 32.1243 191.998 32.0408 191.571 32.0408C191.142 32.0408 190.76 32.1243 190.426 32.2912C190.092 32.4581 189.83 32.6871 189.638 32.9783C189.446 33.2695 189.352 33.6051 189.355 33.9851C189.352 34.3509 189.439 34.6705 189.616 34.9439C189.798 35.2138 190.055 35.4251 190.389 35.5778C190.723 35.7269 191.117 35.8015 191.571 35.8015ZM191.571 30.7251C191.934 30.7251 192.255 30.6523 192.536 30.5067C192.816 30.3612 193.036 30.1587 193.196 29.8995C193.359 29.6403 193.443 29.3366 193.446 28.9886C193.443 28.6477 193.361 28.3494 193.201 28.0938C193.045 27.8381 192.827 27.641 192.546 27.5025C192.266 27.3604 191.941 27.2894 191.571 27.2894C191.195 27.2894 190.865 27.3604 190.581 27.5025C190.3 27.641 190.082 27.8381 189.925 28.0938C189.769 28.3494 189.693 28.6477 189.696 28.9886C189.693 29.3366 189.771 29.6403 189.931 29.8995C190.091 30.1587 190.311 30.3612 190.591 30.5067C190.875 30.6523 191.202 30.7251 191.571 30.7251Z" fill="#0F1B2D"/>
<path d="M149.764 52.5455H150.909V59.304C150.909 59.9072 150.798 60.4196 150.577 60.8413C150.355 61.2629 150.043 61.583 149.64 61.8015C149.236 62.02 148.761 62.1293 148.213 62.1293C147.696 62.1293 147.236 62.0354 146.833 61.8477C146.43 61.6568 146.113 61.386 145.882 61.0352C145.651 60.6843 145.536 60.2673 145.536 59.7841H146.662C146.662 60.0518 146.728 60.2857 146.86 60.4858C146.996 60.6828 147.181 60.8366 147.414 60.9474C147.648 61.0582 147.915 61.1136 148.213 61.1136C148.542 61.1136 148.822 61.0444 149.053 60.9059C149.284 60.7674 149.46 60.5643 149.58 60.2965C149.703 60.0257 149.764 59.6948 149.764 59.304V52.5455ZM155.142 62.1662C154.693 62.1662 154.285 62.0816 153.919 61.9123C153.553 61.7399 153.262 61.4922 153.047 61.169C152.831 60.8428 152.723 60.4489 152.723 59.9872C152.723 59.581 152.803 59.2517 152.963 58.9993C153.123 58.7438 153.337 58.5438 153.605 58.3991C153.873 58.2545 154.168 58.1468 154.491 58.076C154.818 58.0021 155.145 57.9437 155.475 57.9006C155.906 57.8452 156.255 57.8036 156.523 57.7759C156.794 57.7451 156.991 57.6944 157.114 57.6236C157.24 57.5528 157.303 57.4297 157.303 57.2543V57.2173C157.303 56.7618 157.178 56.4079 156.929 56.1555C156.683 55.9032 156.309 55.777 155.807 55.777C155.287 55.777 154.879 55.8909 154.584 56.1186C154.288 56.3464 154.081 56.5895 153.961 56.848L152.926 56.4787C153.111 56.0478 153.357 55.7124 153.665 55.4723C153.976 55.2292 154.315 55.0599 154.681 54.9645C155.05 54.866 155.413 54.8168 155.77 54.8168C155.998 54.8168 156.26 54.8445 156.555 54.8999C156.854 54.9522 157.141 55.0614 157.418 55.2276C157.698 55.3938 157.931 55.6446 158.115 55.9801C158.3 56.3156 158.392 56.7649 158.392 57.3281V62H157.303V61.0398H157.248C157.174 61.1937 157.051 61.3583 156.878 61.5337C156.706 61.7092 156.477 61.8584 156.19 61.9815C155.904 62.1046 155.555 62.1662 155.142 62.1662ZM155.309 61.1875C155.739 61.1875 156.103 61.1029 156.398 60.9336C156.697 60.7643 156.921 60.5458 157.072 60.2781C157.226 60.0103 157.303 59.7287 157.303 59.4332V58.4361C157.257 58.4915 157.155 58.5423 156.998 58.5884C156.844 58.6315 156.666 58.67 156.463 58.7038C156.263 58.7346 156.067 58.7623 155.876 58.7869C155.689 58.8085 155.536 58.8269 155.419 58.8423C155.136 58.8793 154.872 58.9393 154.625 59.0224C154.382 59.1024 154.185 59.224 154.034 59.3871C153.887 59.5471 153.813 59.7656 153.813 60.0426C153.813 60.4212 153.953 60.7074 154.233 60.9013C154.516 61.0921 154.875 61.1875 155.309 61.1875ZM161.47 57.7344V62H160.381V54.9091H161.434V56.017H161.526C161.692 55.657 161.944 55.3677 162.283 55.1491C162.621 54.9276 163.059 54.8168 163.594 54.8168C164.074 54.8168 164.494 54.9152 164.854 55.1122C165.214 55.3061 165.494 55.6016 165.695 55.9986C165.895 56.3925 165.995 56.8911 165.995 57.4943V62H164.905V57.5682C164.905 57.0111 164.76 56.5772 164.471 56.2663C164.182 55.9524 163.785 55.7955 163.28 55.7955C162.932 55.7955 162.621 55.8709 162.348 56.0217C162.077 56.1725 161.863 56.3925 161.706 56.6818C161.549 56.9711 161.47 57.322 161.47 57.7344ZM174.947 52.5455V62H173.802V53.7457H173.747L171.439 55.2784V54.1151L173.802 52.5455H174.947ZM180.805 62.1293C180.418 62.1231 180.03 62.0492 179.642 61.9077C179.254 61.7661 178.9 61.5276 178.58 61.1921C178.26 60.8536 178.003 60.3965 177.809 59.821C177.615 59.2424 177.518 58.5161 177.518 57.642C177.518 56.8049 177.597 56.0632 177.754 55.4169C177.911 54.7675 178.139 54.2212 178.437 53.7781C178.736 53.3318 179.096 52.9933 179.517 52.7624C179.942 52.5316 180.421 52.4162 180.953 52.4162C181.482 52.4162 181.953 52.5224 182.366 52.7347C182.781 52.944 183.12 53.2364 183.381 53.6119C183.643 53.9873 183.812 54.4197 183.889 54.9091H182.763C182.658 54.4844 182.455 54.132 182.153 53.8519C181.852 53.5719 181.452 53.4318 180.953 53.4318C180.221 53.4318 179.644 53.7504 179.222 54.3874C178.803 55.0245 178.593 55.9186 178.589 57.0696H178.663C178.836 56.808 179.04 56.5849 179.277 56.4002C179.517 56.2125 179.782 56.0678 180.071 55.9663C180.361 55.8647 180.667 55.8139 180.99 55.8139C181.532 55.8139 182.027 55.9493 182.477 56.2202C182.926 56.4879 183.286 56.8588 183.557 57.3327C183.828 57.8036 183.963 58.3438 183.963 58.9531C183.963 59.5379 183.832 60.0734 183.571 60.5597C183.309 61.0429 182.941 61.4276 182.467 61.7138C181.996 61.9969 181.442 62.1354 180.805 62.1293ZM180.805 61.1136C181.193 61.1136 181.541 61.0167 181.849 60.8228C182.16 60.6289 182.404 60.3688 182.583 60.0426C182.764 59.7164 182.855 59.3532 182.855 58.9531C182.855 58.5623 182.767 58.2068 182.592 57.8867C182.42 57.5636 182.181 57.3066 181.876 57.1158C181.575 56.925 181.23 56.8295 180.842 56.8295C180.55 56.8295 180.278 56.888 180.025 57.005C179.773 57.1188 179.551 57.2758 179.36 57.4759C179.173 57.6759 179.025 57.9052 178.917 58.1637C178.81 58.4192 178.756 58.6884 178.756 58.9716C178.756 59.3471 178.843 59.6979 179.019 60.0241C179.197 60.3504 179.44 60.6135 179.748 60.8136C180.059 61.0136 180.411 61.1136 180.805 61.1136ZM186.978 60.7074L186.904 61.206C186.851 61.5568 186.771 61.9323 186.664 62.3324C186.559 62.7325 186.45 63.1095 186.336 63.4634C186.222 63.8174 186.128 64.099 186.054 64.3082H185.223C185.263 64.1113 185.316 63.8512 185.38 63.5281C185.445 63.2049 185.51 62.8433 185.574 62.4432C185.642 62.0462 185.697 61.6399 185.74 61.2244L185.796 60.7074H186.978ZM192.634 62V61.169L195.755 57.7528C196.121 57.3527 196.423 57.005 196.66 56.7095C196.897 56.411 197.072 56.1309 197.186 55.8693C197.303 55.6046 197.361 55.3277 197.361 55.0384C197.361 54.706 197.281 54.4182 197.121 54.1751C196.964 53.9319 196.749 53.7442 196.475 53.6119C196.201 53.4795 195.893 53.4134 195.552 53.4134C195.188 53.4134 194.871 53.4888 194.601 53.6396C194.333 53.7873 194.125 53.995 193.977 54.2628C193.833 54.5305 193.76 54.8445 193.76 55.2045H192.671C192.671 54.6506 192.799 54.1643 193.054 53.7457C193.31 53.3272 193.657 53.0009 194.097 52.767C194.541 52.5331 195.038 52.4162 195.589 52.4162C196.142 52.4162 196.633 52.5331 197.061 52.767C197.489 53.0009 197.824 53.3164 198.068 53.7134C198.311 54.1104 198.432 54.5521 198.432 55.0384C198.432 55.3861 198.369 55.7262 198.243 56.0586C198.12 56.3879 197.904 56.7557 197.597 57.1619C197.292 57.5651 196.869 58.0575 196.327 58.6392L194.204 60.9105V60.9844H198.598V62H192.634ZM203.589 62.1293C202.893 62.1293 202.301 61.94 201.812 61.5614C201.322 61.1798 200.948 60.6274 200.69 59.9041C200.431 59.1778 200.302 58.3007 200.302 57.2727C200.302 56.2509 200.431 55.3784 200.69 54.6552C200.951 53.9289 201.327 53.3749 201.816 52.9933C202.309 52.6085 202.899 52.4162 203.589 52.4162C204.278 52.4162 204.868 52.6085 205.357 52.9933C205.849 53.3749 206.225 53.9289 206.483 54.6552C206.745 55.3784 206.876 56.2509 206.876 57.2727C206.876 58.3007 206.747 59.1778 206.488 59.9041C206.229 60.6274 205.856 61.1798 205.366 61.5614C204.877 61.94 204.284 62.1293 203.589 62.1293ZM203.589 61.1136C204.278 61.1136 204.814 60.7812 205.195 60.1165C205.577 59.4517 205.768 58.5038 205.768 57.2727C205.768 56.4541 205.68 55.757 205.505 55.1815C205.332 54.6059 205.083 54.1674 204.757 53.8658C204.434 53.5642 204.044 53.4134 203.589 53.4134C202.906 53.4134 202.372 53.7504 201.987 54.4244C201.602 55.0953 201.41 56.0447 201.41 57.2727C201.41 58.0914 201.496 58.7869 201.668 59.3594C201.841 59.9318 202.089 60.3673 202.412 60.6658C202.738 60.9644 203.13 61.1136 203.589 61.1136ZM208.63 62V61.169L211.751 57.7528C212.117 57.3527 212.419 57.005 212.656 56.7095C212.893 56.411 213.068 56.1309 213.182 55.8693C213.299 55.6046 213.357 55.3277 213.357 55.0384C213.357 54.706 213.277 54.4182 213.117 54.1751C212.96 53.9319 212.745 53.7442 212.471 53.6119C212.197 53.4795 211.889 53.4134 211.548 53.4134C211.185 53.4134 210.868 53.4888 210.597 53.6396C210.329 53.7873 210.121 53.995 209.973 54.2628C209.829 54.5305 209.756 54.8445 209.756 55.2045H208.667C208.667 54.6506 208.795 54.1643 209.05 53.7457C209.306 53.3272 209.653 53.0009 210.093 52.767C210.537 52.5331 211.034 52.4162 211.585 52.4162C212.139 52.4162 212.629 52.5331 213.057 52.767C213.485 53.0009 213.821 53.3164 214.064 53.7134C214.307 54.1104 214.428 54.5521 214.428 55.0384C214.428 55.3861 214.365 55.7262 214.239 56.0586C214.116 56.3879 213.901 56.7557 213.593 57.1619C213.288 57.5651 212.865 58.0575 212.323 58.6392L210.2 60.9105V60.9844H214.595V62H208.63ZM219.585 62.1293C218.889 62.1293 218.297 61.94 217.808 61.5614C217.318 61.1798 216.944 60.6274 216.686 59.9041C216.427 59.1778 216.298 58.3007 216.298 57.2727C216.298 56.2509 216.427 55.3784 216.686 54.6552C216.947 53.9289 217.323 53.3749 217.812 52.9933C218.305 52.6085 218.896 52.4162 219.585 52.4162C220.274 52.4162 220.864 52.6085 221.353 52.9933C221.845 53.3749 222.221 53.9289 222.479 54.6552C222.741 55.3784 222.872 56.2509 222.872 57.2727C222.872 58.3007 222.743 59.1778 222.484 59.9041C222.226 60.6274 221.852 61.1798 221.362 61.5614C220.873 61.94 220.281 62.1293 219.585 62.1293ZM219.585 61.1136C220.274 61.1136 220.81 60.7812 221.191 60.1165C221.573 59.4517 221.764 58.5038 221.764 57.2727C221.764 56.4541 221.676 55.757 221.501 55.1815C221.328 54.6059 221.079 54.1674 220.753 53.8658C220.43 53.5642 220.04 53.4134 219.585 53.4134C218.902 53.4134 218.368 53.7504 217.983 54.4244C217.598 55.0953 217.406 56.0447 217.406 57.2727C217.406 58.0914 217.492 58.7869 217.665 59.3594C217.837 59.9318 218.085 60.3673 218.408 60.6658C218.734 60.9644 219.126 61.1136 219.585 61.1136Z" fill="#545F7A"/>
<defs>
<filter id="filter0_f_1_776" x="31.2296" y="81.2063" width="320.606" height="133.394" filterUnits="userSpaceOnUse" color-interpolation-filters="sRGB">
<feFlood flood-opacity="0" result="BackgroundImageFix"/>
<feBlend mode="normal" in="SourceGraphic" in2="BackgroundImageFix" result="shape"/>
<feGaussianBlur stdDeviation="8" result="effect1_foregroundBlur_1_776"/>
</filter>
<filter id="filter1_d_1_776" x="121" y="0" width="148" height="107.746" filterUnits="userSpaceOnUse" color-interpolation-filters="sRGB">
<feFlood flood-opacity="0" result="BackgroundImageFix"/>
<feColorMatrix in="SourceAlpha" type="matrix" values="0 0 0 0 0 0 0 0 0 0 0 0 0 0 0 0 0 0 127 0" result="hardAlpha"/>
<feOffset dx="2" dy="4"/>
<feGaussianBlur stdDeviation="8"/>
<feColorMatrix type="matrix" values="0 0 0 0 0.615686 0 0 0 0 0.654902 0 0 0 0 0.745098 0 0 0 0.24 0"/>
<feBlend mode="normal" in2="BackgroundImageFix" result="effect1_dropShadow_1_776"/>
<feBlend mode="normal" in="SourceGraphic" in2="effect1_dropShadow_1_776" result="shape"/>
</filter>
<linearGradient id="paint0_linear_1_776" x1="111.916" y1="95" x2="111.916" y2="266" gradientUnits="userSpaceOnUse">
<stop stop-color="#00ADB5" stop-opacity="0.11"/>
<stop offset="0.453125" stop-color="#00ADB5" stop-opacity="0.06"/>
<stop offset="0.916667" stop-color="#00ADB5" stop-opacity="0"/>
</linearGradient>
</defs>
</svg>
