<svg width="299" height="317" viewBox="0 0 299 317" fill="none" xmlns="http://www.w3.org/2000/svg">
<path d="M256.377 123.256L256.666 118.831C256.672 118.734 256.63 118.641 256.554 118.581L253.074 115.835C252.883 115.684 252.947 115.379 253.184 115.319L257.48 114.225C257.574 114.201 257.651 114.133 257.684 114.042L259.221 109.882C259.305 109.653 259.616 109.62 259.746 109.827L262.112 113.575C262.164 113.657 262.253 113.709 262.349 113.712L266.779 113.887C267.022 113.897 267.15 114.182 266.993 114.37L264.159 117.78C264.097 117.855 264.076 117.955 264.102 118.048L265.303 122.316C265.37 122.551 265.138 122.76 264.911 122.67L260.793 121.028C260.703 120.992 260.601 121.003 260.521 121.057L256.833 123.52C256.631 123.655 256.361 123.499 256.377 123.256Z" fill="url(#paint0_linear_1_167)"/>
<path d="M52.6811 46.0666L52.9703 41.6421C52.9766 41.5453 52.9349 41.4517 52.8589 41.3918L49.3787 38.6464C49.1871 38.4952 49.252 38.1899 49.4886 38.1295L53.785 37.0361C53.879 37.0122 53.9551 36.9436 53.9888 36.8527L55.5252 32.693C55.6098 32.464 55.9202 32.4312 56.0504 32.6377L58.4165 36.3864C58.4683 36.4682 58.5571 36.5195 58.6537 36.5233L63.0832 36.6981C63.327 36.7078 63.4542 36.9927 63.298 37.1806L60.4637 40.591C60.4017 40.6656 60.3803 40.766 60.4068 40.8592L61.608 45.1267C61.6743 45.3617 61.4422 45.5706 61.2154 45.4803L57.0977 43.8391C57.0077 43.8031 56.9056 43.814 56.8252 43.8678L53.1381 46.3305C52.9357 46.4664 52.6654 46.3103 52.6811 46.0666Z" fill="url(#paint1_linear_1_167)"/>
<g filter="url(#filter0_f_1_167)">
<circle cx="110.39" cy="88.8121" r="6" transform="rotate(-150 110.39 88.8121)" fill="url(#paint2_linear_1_167)"/>
</g>
<circle cx="117.204" cy="35.0109" r="5" transform="rotate(-150 117.204 35.0109)" fill="url(#paint3_linear_1_167)"/>
<ellipse cx="132.502" cy="93.9832" rx="1.89657" ry="1.89727" transform="rotate(-150 132.502 93.9832)" fill="url(#paint4_linear_1_167)"/>
<ellipse cx="129.903" cy="141.222" rx="1.89657" ry="1.89727" transform="rotate(-150 129.903 141.222)" fill="url(#paint5_linear_1_167)"/>
<ellipse cx="87.4204" cy="85.5635" rx="1.89657" ry="1.89727" transform="rotate(-150 87.4204 85.5635)" fill="url(#paint6_linear_1_167)"/>
<ellipse cx="40.995" cy="97.2015" rx="1.89657" ry="1.89727" transform="rotate(-150 40.995 97.2015)" fill="url(#paint7_linear_1_167)"/>
<ellipse cx="161.128" cy="66.8014" rx="1.89657" ry="1.89727" transform="rotate(-150 161.128 66.8014)" fill="url(#paint8_linear_1_167)"/>
<ellipse cx="80.8587" cy="39.6486" rx="1.89657" ry="1.89727" transform="rotate(-150 80.8587 39.6486)" fill="url(#paint9_linear_1_167)"/>
<ellipse cx="107.25" cy="57.0751" rx="1.89657" ry="1.89727" transform="rotate(-150 107.25 57.0751)" fill="url(#paint10_linear_1_167)"/>
<ellipse cx="150.649" cy="101.495" rx="1.89657" ry="1.89727" transform="rotate(-150 150.649 101.495)" fill="url(#paint11_linear_1_167)"/>
<ellipse cx="99.4971" cy="126.596" rx="1.89657" ry="1.89727" transform="rotate(-150 99.4971 126.596)" fill="url(#paint12_linear_1_167)"/>
<path opacity="0.4" fill-rule="evenodd" clip-rule="evenodd" d="M143.911 259.476L20.2918 263.793C20.2918 263.793 -39.5982 309.013 86.9378 310.636C213.474 312.258 271.153 304.203 271.153 304.203C271.153 304.203 340.039 278.376 231.863 266.041C123.687 253.707 143.911 259.476 143.911 259.476Z" fill="#DDDEEA"/>
<path fill-rule="evenodd" clip-rule="evenodd" d="M259.08 142.681C258.984 142.667 258.888 142.66 258.79 142.663C257.887 142.689 257.494 143.508 256.728 143.751C256.385 143.86 255.393 143.449 255.357 144.046C255.345 144.266 255.242 145.005 255.185 145.752C254.917 146.314 254.675 146.89 254.356 147.425C253.551 148.779 250.264 150.684 251.419 152.513C251.642 152.866 251.872 153.228 252.205 153.481C252.476 153.688 252.802 153.811 253.125 153.916C253.379 153.998 253.76 154.189 253.99 154.071C254.232 153.947 254.512 153.319 254.672 153.089C255.13 152.432 255.585 151.775 256.042 151.118C256.488 150.474 257.077 149.757 257.856 149.8C258.028 149.809 258.196 149.857 258.368 149.843C258.56 149.827 258.737 149.734 258.905 149.639C259.52 149.289 260.122 148.881 260.642 148.395C261.571 147.526 261.257 145.553 261.161 144.436C261.137 144.157 261.104 143.87 260.962 143.63C260.733 143.239 260.275 143.058 259.851 142.904C259.6 142.812 259.341 142.72 259.08 142.681Z" fill="#E5D1BD"/>
<path fill-rule="evenodd" clip-rule="evenodd" d="M242.375 166.657C243.357 166.458 244.353 166.254 245.248 165.801C245.961 165.44 246.589 164.93 247.197 164.41C250.969 161.181 254.236 157.359 256.845 153.124C255.329 151.345 253.458 149.872 251.376 148.818C248.502 151.715 245.397 154.38 242.101 156.781C241.427 157.272 240.736 157.757 239.956 158.05C238.833 158.473 237.603 158.469 236.403 158.461C231.753 158.427 227.102 158.394 222.452 158.361C219.646 158.341 216.738 158.342 214.181 159.502C207.089 162.719 210.076 172.146 217.327 171.811C225.469 171.436 234.363 168.28 242.375 166.657Z" fill="url(#paint13_linear_1_167)"/>
<path fill-rule="evenodd" clip-rule="evenodd" d="M168.297 109.871C169.676 81.6578 193.541 59.9102 221.602 61.2967C249.662 62.6829 271.291 86.6786 269.914 114.892C268.534 143.105 244.669 164.853 216.608 163.467C188.548 162.08 166.918 138.085 168.297 109.871Z" fill="#F6D738"/>
<path fill-rule="evenodd" clip-rule="evenodd" d="M175.985 110.251C177.155 86.3067 197.409 67.8499 221.224 69.0263C245.039 70.2031 263.396 90.5676 262.225 114.512C261.056 138.456 240.801 156.913 216.986 155.737C193.171 154.56 174.814 134.196 175.985 110.251Z" fill="#F3CC30"/>
<path fill-rule="evenodd" clip-rule="evenodd" d="M243.473 76.4923C247.438 83.4451 249.536 91.582 249.116 100.181C247.946 124.125 227.692 142.582 203.877 141.406C195.606 140.997 187.995 138.272 181.63 133.888C188.705 146.296 201.726 154.931 216.989 155.686C240.803 156.862 261.058 138.405 262.227 114.461C262.991 98.8324 255.434 84.7309 243.473 76.4923Z" fill="#EDBD31"/>
<path fill-rule="evenodd" clip-rule="evenodd" d="M183.344 114.591C184.377 93.4545 202.257 77.1619 223.279 78.2006C235.567 78.8078 246.206 85.2034 252.723 94.633C246.71 82.8355 234.768 74.503 220.654 73.8056C199.631 72.7671 181.752 89.0597 180.719 110.196C180.29 118.978 182.838 127.213 187.47 133.916C184.527 128.142 183.005 121.537 183.344 114.591Z" fill="#F7DB5E"/>
<path fill-rule="evenodd" clip-rule="evenodd" d="M224.032 84.5744L223.762 90.098C225.949 90.5638 227.717 91.3857 229.064 92.5632C230.411 93.7411 231.664 95.5072 232.823 97.8616L227.207 100.664C225.71 97.5767 223.634 95.9672 220.981 95.8359C219.337 95.7548 217.949 96.176 216.818 97.0994C215.686 98.0228 215.085 99.2171 215.013 100.682C214.948 102.017 215.332 103.147 216.168 104.073C216.985 104.98 218.672 106.089 221.23 107.402C223.441 108.547 225.262 109.612 226.694 110.595C228.125 111.58 229.194 112.513 229.9 113.395C231.899 115.792 232.82 118.615 232.661 121.865C232.505 125.059 231.414 127.83 229.389 130.178C227.383 132.508 224.781 134.018 221.582 134.707L221.297 140.54L216.392 140.298L216.669 134.634C213.036 133.851 210.304 132.446 208.474 130.416C206.644 128.386 205.37 125.328 204.652 121.244L210.882 120.252C211.583 123.15 212.511 125.239 213.666 126.519C214.879 127.747 216.542 128.413 218.653 128.517C220.709 128.619 222.46 128.037 223.908 126.771C225.336 125.524 226.102 123.857 226.204 121.772C226.295 119.912 225.797 118.39 224.713 117.207C224.16 116.633 223.335 115.976 222.238 115.234C221.141 114.493 219.734 113.675 218.018 112.78C214.473 110.966 212.163 109.346 211.091 107.918C209.379 105.781 208.592 103.285 208.732 100.429C208.798 99.0757 209.074 97.8282 209.561 96.6842C210.048 95.5409 210.721 94.5147 211.58 93.606C212.439 92.6978 213.483 91.9252 214.713 91.2892C215.943 90.6536 217.325 90.1753 218.857 89.8555L219.127 84.3321L224.032 84.5744Z" fill="#D49A34"/>
<path fill-rule="evenodd" clip-rule="evenodd" d="M149.18 250.098C149.283 251.015 149.615 251.862 149.829 252.747C152.961 252.449 155.933 252.013 158.968 251.029C157.584 249.832 158.164 248.319 155.494 248.543C154.63 248.616 150.58 250.11 149.18 250.098Z" fill="#E5D1BD"/>
<path fill-rule="evenodd" clip-rule="evenodd" d="M151.585 252.769C151.767 253.318 151.566 253.687 151.28 254.114C151.114 254.362 150.855 254.551 150.751 254.836C150.648 255.12 150.658 255.382 150.673 255.7C150.749 257.372 151.374 261.157 148.337 259.541C145.58 258.073 145.856 253.05 146.119 250.133C146.136 249.941 146.135 249.741 146.258 249.585C146.381 249.428 146.57 249.306 146.772 249.217C147.896 248.722 149.294 248.066 149.997 249.441C150.296 250.027 149.973 250.656 150.294 251.276C150.557 251.785 151.402 252.22 151.585 252.769Z" fill="#4D4D4D"/>
<path fill-rule="evenodd" clip-rule="evenodd" d="M210.392 232.11C210.988 232.411 211.592 232.711 212.198 233.012C216.847 235.321 221.568 237.667 222.762 240.629C223.595 242.697 226.338 257.993 226.755 268.762C226.771 269.154 226.687 269.868 226.6 270.607C226.517 271.32 226.431 272.056 226.427 272.555C228.155 273.053 229.757 273.114 231.487 273.179C232.139 273.204 232.809 273.229 233.511 273.279C235.384 260.869 237.327 239.138 237.327 239.138C235.508 231.359 228.699 222.762 222.486 214.916C220.03 211.815 217.667 208.832 215.742 206.062C215.633 205.906 215.522 205.743 215.409 205.578C214.355 204.032 213.104 202.198 211.279 201.952C209.729 201.743 208.505 202.294 207.112 203.205C206.106 203.863 204.552 204.626 202.802 205.485C199.878 206.921 196.407 208.625 194.036 210.554C191.772 211.658 189.881 212.931 188.878 214.243C187.028 216.663 187.156 220.358 187.278 223.885C187.405 227.541 187.526 231.016 185.431 232.7C177.969 238.702 168.586 242.092 159.938 245.216C158.61 245.696 157.3 246.169 156.016 246.645C155.653 246.78 154.944 246.93 154.22 247.084C153.573 247.222 152.913 247.362 152.474 247.496C152.604 249.635 153.132 251.504 153.716 253.572C153.795 253.854 153.876 254.139 153.957 254.43C155.768 254.222 157.763 254.005 159.868 253.777C171.141 252.554 185.535 250.993 191.344 248.56C197.958 245.79 204.39 238.714 210.392 232.11C210.392 232.11 210.392 232.11 210.392 232.11Z" fill="url(#paint14_linear_1_167)"/>
<path fill-rule="evenodd" clip-rule="evenodd" d="M227.703 276.67C228.631 276.862 229.565 276.768 230.494 276.87C231.239 273.617 231.827 270.427 231.868 267.041C230.237 268.116 229.001 267.106 228.375 269.873C228.172 270.768 228.219 275.269 227.703 276.67Z" fill="#E5D1BD"/>
<path fill-rule="evenodd" clip-rule="evenodd" d="M231.082 275.133C231.663 275.134 231.952 275.474 232.273 275.874C232.459 276.106 232.55 276.435 232.768 276.64C232.985 276.844 233.246 276.907 233.555 276.984C235.186 277.39 238.991 277.971 236.508 280.402C234.253 282.609 229.573 280.802 226.864 279.66C226.686 279.585 226.49 279.522 226.373 279.357C226.256 279.192 226.205 278.966 226.179 278.747C226.035 277.528 225.838 275.914 227.363 275.655C228.013 275.545 228.558 276.051 229.254 275.926C229.825 275.824 230.501 275.133 231.082 275.133Z" fill="#4D4D4D"/>
<path fill-rule="evenodd" clip-rule="evenodd" d="M204.781 159.56C203.977 160.142 203.193 160.738 202.425 161.317C199.316 163.66 196.136 166.083 193.782 169.232C191.592 172.161 191.017 175.824 189.943 179.273C186.949 188.894 186.432 199.048 185.045 208.972C184.775 210.907 184.464 212.861 183.698 214.657C182.932 216.453 181.657 218.1 179.899 218.932C178.196 219.738 176.181 219.728 174.532 220.64C174.782 220.502 177.493 222.404 177.893 222.61C179.123 223.244 180.137 223.562 181.471 223.766C184.35 224.208 187.335 224.562 190.18 223.723C193.332 222.794 195.893 220.527 198.783 218.957C201.723 217.361 205.047 216.485 208.388 216.426C214.384 216.322 220.603 218.763 226.219 216.65C225.03 217.098 223.339 207.731 223.199 206.887C222.583 203.178 223.055 199.303 223.385 195.543C223.995 188.588 224.314 181.6 224.883 174.661C225.291 169.691 226.319 165.8 222.947 161.601C221.111 159.315 217.746 155.346 214.703 155.4C210.998 155.465 207.752 157.41 204.781 159.56Z" fill="url(#paint15_linear_1_167)"/>
<path fill-rule="evenodd" clip-rule="evenodd" d="M223.295 153.878C222.171 154.947 220.755 155.643 219.476 156.518C218.231 157.37 217.528 158.313 216.778 159.583C216.235 160.5 215.581 161.122 214.342 160.813C212.007 160.229 213.377 158.652 213.413 157.113C213.454 155.354 212.716 153.651 212.41 151.941C211.525 147.002 215.361 139.511 221.161 139.94C227.503 140.41 226.709 150.635 223.295 153.878Z" fill="#EFBFA5"/>
<path fill-rule="evenodd" clip-rule="evenodd" d="M215.745 145.368C215.109 145.78 214.759 146.672 215.112 147.345C215.3 147.705 215.649 147.955 215.866 148.299C216.5 149.308 215.762 150.65 214.833 151.393C213.903 152.137 212.737 152.65 212.111 153.664C208.949 151.089 206.529 147.357 206.309 143.271C206.149 140.323 207.316 137.251 209.5 135.254C212.063 132.911 214.655 133.04 217.99 132.754C219.363 132.636 220.776 132.522 222.094 132.924C224.122 133.544 225.935 134.215 228.136 134.212C229.446 134.211 230.795 133.893 231.825 133.078C232.665 132.413 233.234 131.472 233.932 130.658C234.631 129.845 235.569 129.114 236.637 129.13C236.715 129.769 236.78 130.468 236.429 131.006C236.247 131.285 235.969 131.49 235.789 131.769C235.095 132.845 236.129 134.353 235.627 135.532C235.27 136.374 234.273 136.724 233.68 137.419C233.161 138.027 232.988 138.852 232.632 139.569C231.451 141.939 227.981 144.633 225.86 146.064C226.499 145.633 224.287 143.155 223.784 143.046C222.594 142.789 220.709 144.148 219.491 144.44C218.317 144.722 216.784 144.694 215.745 145.368Z" fill="#534741"/>
<path fill-rule="evenodd" clip-rule="evenodd" d="M245.532 197.021C245.506 196.928 245.473 196.837 245.431 196.749C245.042 195.927 244.139 195.897 243.608 195.29C243.371 195.02 243.344 193.942 242.786 194.149C242.581 194.227 241.868 194.43 241.165 194.679C240.545 194.661 239.923 194.671 239.308 194.595C237.751 194.401 234.689 192.146 233.492 193.947C233.261 194.296 233.025 194.654 232.929 195.062C232.85 195.395 232.869 195.743 232.905 196.084C232.932 196.349 232.913 196.777 233.113 196.942C233.324 197.115 234.008 197.118 234.282 197.172C235.064 197.327 235.846 197.481 236.628 197.635C237.395 197.787 238.285 198.037 238.561 198.773C238.622 198.933 238.647 199.108 238.728 199.259C238.82 199.43 238.976 199.555 239.131 199.671C239.697 200.096 240.312 200.485 240.964 200.767C242.13 201.27 243.799 200.185 244.777 199.646C245.02 199.511 245.268 199.364 245.429 199.137C245.692 198.768 245.672 198.274 245.641 197.821C245.622 197.552 245.603 197.279 245.532 197.021Z" fill="#E5D1BD"/>
<path fill-rule="evenodd" clip-rule="evenodd" d="M216.97 191.342C217.548 192.165 218.136 192.999 218.91 193.639C219.526 194.149 220.243 194.52 220.963 194.869C225.423 197.035 230.222 198.496 235.128 199.184C236.133 197.071 236.718 194.756 236.836 192.416C233.04 190.941 229.361 189.162 225.845 187.101C225.126 186.68 224.405 186.24 223.824 185.641C222.986 184.778 222.492 183.645 222.015 182.539C220.167 178.248 218.319 173.957 216.47 169.666C215.355 167.077 214.18 164.403 212.092 162.519C206.3 157.296 198.93 163.852 202.163 170.386C205.794 177.723 212.257 184.628 216.97 191.342Z" fill="url(#paint16_linear_1_167)"/>
<path fill-rule="evenodd" clip-rule="evenodd" d="M40.9649 284.131H33.2299V269.319H48.7001V276.001L40.9649 284.131Z" fill="#404C65"/>
<path fill-rule="evenodd" clip-rule="evenodd" d="M123.616 283.792H131.351V268.979H115.881V275.661L123.616 283.792Z" fill="#404C65"/>
<path fill-rule="evenodd" clip-rule="evenodd" d="M134.496 274.625H28.9801C26.2511 274.625 24.0391 272.401 24.0391 269.657V152.664C24.0391 149.92 26.2511 147.695 28.9801 147.695H134.496C137.225 147.695 139.437 149.92 139.437 152.664V269.657C139.437 272.401 137.225 274.625 134.496 274.625Z" fill="url(#paint17_linear_1_167)"/>
<path fill-rule="evenodd" clip-rule="evenodd" d="M129.879 263.816H33.5972C33.0925 263.816 32.6831 263.405 32.6831 262.897V159.423C32.6831 158.916 33.0925 158.504 33.5972 158.504H129.879C130.384 158.504 130.794 158.916 130.794 159.423V262.897C130.794 263.405 130.384 263.816 129.879 263.816Z" fill="url(#paint18_linear_1_167)"/>
<path fill-rule="evenodd" clip-rule="evenodd" d="M116.86 279.296L33.8242 264.322C33.4582 264.256 33.1622 263.76 33.1622 263.214V160.28C33.1622 159.734 33.4582 159.238 33.8242 159.172L116.86 144.198C117.466 144.088 117.958 144.571 117.958 145.277V278.217C117.958 278.923 117.466 279.406 116.86 279.296Z" fill="url(#paint19_linear_1_167)"/>
<path fill-rule="evenodd" clip-rule="evenodd" d="M94.6004 211.747C94.6004 228.12 84.1769 240.516 72.1389 239.503C60.9197 238.559 52.3698 226.157 52.3698 211.747C52.3698 197.337 60.9197 184.935 72.1389 183.991C84.1769 182.978 94.6004 195.374 94.6004 211.747Z" fill="url(#paint20_linear_1_167)"/>
<path fill-rule="evenodd" clip-rule="evenodd" d="M89.1639 211.747C89.1639 224.157 81.3293 233.71 72.1389 233.115C63.4336 232.551 56.7068 222.996 56.7068 211.747C56.7068 200.498 63.4336 190.943 72.1389 190.379C81.3293 189.784 89.1639 199.337 89.1639 211.747Z" fill="url(#paint21_linear_1_167)"/>
<path fill-rule="evenodd" clip-rule="evenodd" d="M77.8958 211.747C77.8958 215.944 75.2938 219.287 72.1389 219.215C69.0429 219.145 66.5757 215.802 66.5757 211.747C66.5757 207.692 69.0429 204.349 72.1389 204.279C75.2938 204.207 77.8958 207.55 77.8958 211.747Z" fill="#6A81AF"/>
<mask id="mask0_1_167" style="mask-type:alpha" maskUnits="userSpaceOnUse" x="72" y="207" width="6" height="13">
<path fill-rule="evenodd" clip-rule="evenodd" d="M72.3142 219.218C72.2812 219.218 72.2479 219.218 72.2148 219.217C72.2041 219.217 72.1933 219.216 72.1825 219.216C72.2009 219.216 72.2194 219.216 72.2381 219.216C75.3479 219.216 77.8958 215.9 77.8958 211.747C77.8958 210.16 77.5241 208.695 76.8905 207.491C76.8289 207.329 76.7633 207.171 76.6934 207.016C77.4934 208.304 77.9746 209.95 77.9746 211.747C77.9746 215.901 75.4258 219.218 72.3142 219.218Z" fill="white"/>
</mask>
<g mask="url(#mask0_1_167)">
<path fill-rule="evenodd" clip-rule="evenodd" d="M72.1825 219.218H77.9746V207.016H72.1825V219.218Z" fill="#AEC2C3"/>
</g>
<path fill-rule="evenodd" clip-rule="evenodd" d="M72.6012 232.725C72.6012 231.143 72.6012 229.562 72.6012 227.98C72.6012 227.326 71.8315 227.288 71.8315 227.942C71.8315 229.52 71.8315 231.098 71.8315 232.676C71.8315 233.329 72.6012 233.381 72.6012 232.725Z" fill="white"/>
<path fill-rule="evenodd" clip-rule="evenodd" d="M72.6012 195.514C72.6012 193.932 72.6012 192.35 72.6012 190.769C72.6012 190.114 71.8315 190.164 71.8315 190.818C71.8315 192.396 71.8315 193.974 71.8315 195.552C71.8315 196.205 72.6012 196.17 72.6012 195.514Z" fill="white"/>
<path fill-rule="evenodd" clip-rule="evenodd" d="M56.9978 212.431C58.091 212.426 59.1917 212.42 60.3002 212.415C60.7611 212.413 60.7582 211.432 60.2966 211.436C59.1881 211.445 58.0874 211.454 56.9942 211.462C56.5441 211.466 56.547 212.433 56.9978 212.431Z" fill="white"/>
<path fill-rule="evenodd" clip-rule="evenodd" d="M84.8978 212.294C86.1937 212.287 87.4999 212.281 88.8156 212.274C89.3627 212.272 89.3594 211.203 88.8113 211.208C87.4956 211.218 86.1896 211.229 84.8935 211.239C84.3603 211.243 84.3637 212.296 84.8978 212.294Z" fill="white"/>
<path fill-rule="evenodd" clip-rule="evenodd" d="M61.7839 226.851C62.5617 225.78 63.3433 224.703 64.1289 223.62C64.4549 223.171 63.9258 222.467 63.6003 222.917C62.8175 223.999 62.0383 225.076 61.2629 226.148C60.9434 226.59 61.4627 227.294 61.7839 226.851Z" fill="white"/>
<path fill-rule="evenodd" clip-rule="evenodd" d="M81.1441 200.176C82.0194 198.97 82.8992 197.758 83.7833 196.54C84.1502 196.034 83.5545 195.335 83.1883 195.841C82.307 197.059 81.4306 198.271 80.5585 199.476C80.1989 199.973 80.7829 200.674 81.1441 200.176Z" fill="white"/>
<path fill-rule="evenodd" clip-rule="evenodd" d="M61.8158 196.799C62.5506 197.926 63.2891 199.058 64.0312 200.196C64.3392 200.668 64.8959 200.001 64.5864 199.528C63.842 198.39 63.1008 197.257 62.3633 196.13C62.0591 195.665 61.512 196.334 61.8158 196.799Z" fill="white"/>
<path fill-rule="evenodd" clip-rule="evenodd" d="M80.0545 224.761C80.8758 226.021 81.7015 227.286 82.531 228.558C82.8755 229.086 83.4985 228.433 83.1521 227.903C82.3195 226.631 81.491 225.364 80.6663 224.104C80.3264 223.585 79.7151 224.241 80.0545 224.761Z" fill="white"/>
<path fill-rule="evenodd" clip-rule="evenodd" d="M105.605 235.089L105.565 235.086C104.771 235.035 104.13 234.225 104.13 233.275V191.17C104.13 190.221 104.771 189.412 105.565 189.363L105.605 189.36C106.403 189.311 107.051 190.047 107.051 191.004V233.449C107.051 234.406 106.403 235.14 105.605 235.089Z" fill="#75829C"/>
<path fill-rule="evenodd" clip-rule="evenodd" d="M119.018 279.312H116.86V144.198H119.018C119.286 144.198 119.504 144.417 119.504 144.687V278.823C119.504 279.093 119.286 279.312 119.018 279.312Z" fill="#75829C"/>
<path fill-rule="evenodd" clip-rule="evenodd" d="M36.9207 186.335V179.279C36.9207 177.458 35.4526 175.982 33.6414 175.982C31.8306 175.982 30.3625 177.458 30.3625 179.279V186.335H36.9207Z" fill="#2E3549"/>
<path fill-rule="evenodd" clip-rule="evenodd" d="M30.3625 187.258V194.314C30.3625 196.134 31.8306 197.611 33.6414 197.611C35.4526 197.611 36.9207 196.134 36.9207 194.314V187.258H30.3625Z" fill="#2E3549"/>
<path fill-rule="evenodd" clip-rule="evenodd" d="M36.09 233.988V226.932C36.09 225.111 34.6219 223.635 32.8108 223.635C30.9999 223.635 29.5318 225.111 29.5318 226.932V233.988H36.09Z" fill="#2E3549"/>
<path fill-rule="evenodd" clip-rule="evenodd" d="M29.5318 234.911V241.966C29.5318 243.787 30.9999 245.263 32.8108 245.263C34.6219 245.263 36.09 243.787 36.09 241.966V234.911H29.5318Z" fill="#2E3549"/>
<defs>
<filter id="filter0_f_1_167" x="101.671" y="80.0929" width="17.4386" height="17.4386" filterUnits="userSpaceOnUse" color-interpolation-filters="sRGB">
<feFlood flood-opacity="0" result="BackgroundImageFix"/>
<feBlend mode="normal" in="SourceGraphic" in2="BackgroundImageFix" result="shape"/>
<feGaussianBlur stdDeviation="1.35914" result="effect1_foregroundBlur_1_167"/>
</filter>
<linearGradient id="paint0_linear_1_167" x1="262.473" y1="126.965" x2="269.024" y2="115.619" gradientUnits="userSpaceOnUse">
<stop stop-color="#00ADB5"/>
<stop offset="1" stop-color="#45D8DF"/>
</linearGradient>
<linearGradient id="paint1_linear_1_167" x1="58.7778" y1="49.7761" x2="65.3287" y2="38.4295" gradientUnits="userSpaceOnUse">
<stop stop-color="#00ADB5"/>
<stop offset="1" stop-color="#45D8DF"/>
</linearGradient>
<linearGradient id="paint2_linear_1_167" x1="104.573" y1="82.8121" x2="104.573" y2="94.447" gradientUnits="userSpaceOnUse">
<stop stop-color="#00ADB5"/>
<stop offset="1" stop-color="#45D8DF"/>
</linearGradient>
<linearGradient id="paint3_linear_1_167" x1="112.356" y1="30.0109" x2="112.356" y2="39.7066" gradientUnits="userSpaceOnUse">
<stop stop-color="#00ADB5"/>
<stop offset="1" stop-color="#45D8DF"/>
</linearGradient>
<linearGradient id="paint4_linear_1_167" x1="130.663" y1="92.0859" x2="130.663" y2="95.765" gradientUnits="userSpaceOnUse">
<stop stop-color="#00ADB5"/>
<stop offset="1" stop-color="#45D8DF"/>
</linearGradient>
<linearGradient id="paint5_linear_1_167" x1="128.064" y1="139.325" x2="128.064" y2="143.004" gradientUnits="userSpaceOnUse">
<stop stop-color="#00ADB5"/>
<stop offset="1" stop-color="#45D8DF"/>
</linearGradient>
<linearGradient id="paint6_linear_1_167" x1="85.5815" y1="83.6662" x2="85.5815" y2="87.3453" gradientUnits="userSpaceOnUse">
<stop stop-color="#00ADB5"/>
<stop offset="1" stop-color="#45D8DF"/>
</linearGradient>
<linearGradient id="paint7_linear_1_167" x1="39.1562" y1="95.3042" x2="39.1562" y2="98.9833" gradientUnits="userSpaceOnUse">
<stop stop-color="#00ADB5"/>
<stop offset="1" stop-color="#45D8DF"/>
</linearGradient>
<linearGradient id="paint8_linear_1_167" x1="159.289" y1="64.9041" x2="159.289" y2="68.5832" gradientUnits="userSpaceOnUse">
<stop stop-color="#00ADB5"/>
<stop offset="1" stop-color="#45D8DF"/>
</linearGradient>
<linearGradient id="paint9_linear_1_167" x1="79.0199" y1="37.7513" x2="79.0199" y2="41.4304" gradientUnits="userSpaceOnUse">
<stop stop-color="#00ADB5"/>
<stop offset="1" stop-color="#45D8DF"/>
</linearGradient>
<linearGradient id="paint10_linear_1_167" x1="105.411" y1="55.1779" x2="105.411" y2="58.8569" gradientUnits="userSpaceOnUse">
<stop stop-color="#00ADB5"/>
<stop offset="1" stop-color="#45D8DF"/>
</linearGradient>
<linearGradient id="paint11_linear_1_167" x1="148.811" y1="99.5974" x2="148.811" y2="103.276" gradientUnits="userSpaceOnUse">
<stop stop-color="#00ADB5"/>
<stop offset="1" stop-color="#45D8DF"/>
</linearGradient>
<linearGradient id="paint12_linear_1_167" x1="97.6583" y1="124.699" x2="97.6583" y2="128.378" gradientUnits="userSpaceOnUse">
<stop stop-color="#00ADB5"/>
<stop offset="1" stop-color="#45D8DF"/>
</linearGradient>
<linearGradient id="paint13_linear_1_167" x1="210.847" y1="148.818" x2="210.847" y2="171.12" gradientUnits="userSpaceOnUse">
<stop stop-color="#00ADB5"/>
<stop offset="1" stop-color="#45D8DF"/>
</linearGradient>
<linearGradient id="paint14_linear_1_167" x1="152.474" y1="201.908" x2="152.474" y2="273.279" gradientUnits="userSpaceOnUse">
<stop stop-color="#3E568F"/>
<stop offset="1" stop-color="#1D2B56"/>
</linearGradient>
<linearGradient id="paint15_linear_1_167" x1="175.318" y1="155.399" x2="175.318" y2="222.137" gradientUnits="userSpaceOnUse">
<stop stop-color="#00ADB5"/>
<stop offset="1" stop-color="#45D8DF"/>
</linearGradient>
<linearGradient id="paint16_linear_1_167" x1="201.913" y1="160.626" x2="201.913" y2="198.011" gradientUnits="userSpaceOnUse">
<stop stop-color="#00ADB5"/>
<stop offset="1" stop-color="#45D8DF"/>
</linearGradient>
<linearGradient id="paint17_linear_1_167" x1="25.795" y1="147.695" x2="25.795" y2="270.762" gradientUnits="userSpaceOnUse">
<stop stop-color="#00ADB5"/>
<stop offset="1" stop-color="#45D8DF"/>
</linearGradient>
<linearGradient id="paint18_linear_1_167" x1="34.1759" y1="158.504" x2="34.1759" y2="260.611" gradientUnits="userSpaceOnUse">
<stop stop-color="#062122"/>
<stop offset="1" stop-color="#006065"/>
</linearGradient>
<linearGradient id="paint19_linear_1_167" x1="34.4524" y1="144.182" x2="34.4524" y2="275.199" gradientUnits="userSpaceOnUse">
<stop stop-color="#00ADB5"/>
<stop offset="1" stop-color="#8AFAFF"/>
</linearGradient>
<linearGradient id="paint20_linear_1_167" x1="53.0124" y1="183.933" x2="53.0124" y2="237.868" gradientUnits="userSpaceOnUse">
<stop stop-color="#25959A"/>
<stop offset="1" stop-color="#34C4CB"/>
</linearGradient>
<linearGradient id="paint21_linear_1_167" x1="57.2007" y1="190.353" x2="57.2007" y2="231.839" gradientUnits="userSpaceOnUse">
<stop stop-color="#2DDAE2"/>
<stop offset="1" stop-color="#24A4AA"/>
</linearGradient>
</defs>
</svg>
